<?xml version="1.0" standalone="no"?>
<!DOCTYPE svg PUBLIC "-//W3C//DTD SVG 1.1//EN" "http://www.w3.org/Graphics/SVG/1.1/DTD/svg11.dtd" >
<!--
2013-9-30: Created.
-->
<svg>
<metadata>
Created by iconfont
</metadata>
<defs>

<font id="iconfont" horiz-adv-x="1024" >
  <font-face
    font-family="iconfont"
    font-weight="500"
    font-stretch="normal"
    units-per-em="1024"
    ascent="896"
    descent="-128"
  />
    <missing-glyph />
    
    <glyph glyph-name="x" unicode="x" horiz-adv-x="1001"
d="M281 543q-27 -1 -53 -1h-83q-18 0 -36.5 -6t-32.5 -18.5t-23 -32t-9 -45.5v-76h912v41q0 16 -0.5 30t-0.5 18q0 13 -5 29t-17 29.5t-31.5 22.5t-49.5 9h-133v-97h-438v97zM955 310v-52q0 -23 0.5 -52t0.5 -58t-10.5 -47.5t-26 -30t-33 -16t-31.5 -4.5q-14 -1 -29.5 -0.5
t-29.5 0.5h-32l-45 128h-439l-44 -128h-29h-34q-20 0 -45 1q-25 0 -41 9.5t-25.5 23t-13.5 29.5t-4 30v167h911zM163 247q-12 0 -21 -8.5t-9 -21.5t9 -21.5t21 -8.5q13 0 22 8.5t9 21.5t-9 21.5t-22 8.5zM316 123q-8 -26 -14 -48q-5 -19 -10.5 -37t-7.5 -25t-3 -15t1 -14.5
t9.5 -10.5t21.5 -4h37h67h81h80h64h36q23 0 34 12t2 38q-5 13 -9.5 30.5t-9.5 34.5q-5 19 -11 39h-368zM336 498v228q0 11 2.5 23t10 21.5t20.5 15.5t34 6h188q31 0 51.5 -14.5t20.5 -52.5v-227h-327z" />
    

    
    <glyph glyph-name="houdongfangiconfont03" unicode="&#58935;" d="M996.352-48.16c17.408-17.408 27.648-40.96 27.648-67.584 0-53.248-43.008-96.256-96.256-96.256-26.624 0-50.176 10.24-67.584 27.648l0 0L578.56 97.248c-57.344-33.792-123.904-53.248-194.56-53.248C172.032 44 0 216.032 0 428 0 639.968 172.032 812 384 812 595.968 812 768 639.968 768 428c0-71.68-19.456-137.216-53.248-194.56L996.352-48.16 996.352-48.16zM384 715.744C225.28 715.744 96.256 586.72 96.256 428 96.256 269.28 225.28 140.256 384 140.256 542.72 140.256 671.744 269.28 671.744 428 671.744 586.72 542.72 715.744 384 715.744z"  horiz-adv-x="1024" />

    
    <glyph glyph-name="iconfont06" unicode="&#58889;" d="M512 799.999c-282.77 0-511.999-229.23-511.999-511.999s229.23-511.999 511.999-511.999 511.999 229.23 511.999 511.999-229.23 511.999-511.999 511.999zM546.798 196.358h-75.728l-30.7 409.339h138.152l-31.724-409.339zM510.674-28.779h-1.433c-39.167 0-70.918 31.751-70.918 70.918v1.433c0 39.167 31.751 70.918 70.918 70.918h1.433c39.167 0 70.918-31.751 70.918-70.918v-1.433c-0-39.168-31.751-70.918-70.918-70.918z"  horiz-adv-x="1024" />

    
    <glyph glyph-name="icon02" unicode="&#58882;" d="M510.352119-100.416237c-220.548741 0-399.339141 178.82643-399.339141 399.403615S289.803378 698.377719 510.352119 698.377719c220.550637 0 399.341037-178.813156 399.341037-399.390341S730.902756-100.416237 510.352119-100.416237zM510.352119 648.455822c-192.982281 0-349.421037-156.461511-349.421037-349.468444S317.369837-50.482963 510.352119-50.482963s349.421037 156.463407 349.421037 349.470341S703.3344 648.455822 510.352119 648.455822zM660.104533 274.020741 535.313067 274.020741l0-124.81043c0-13.778489-11.174874-24.957156-24.959052-24.957156-13.784178 0-24.957156 11.178667-24.957156 24.957156l0 124.81043-124.795259 0c-13.784178 0-24.959052 11.17677-24.959052 24.966637 0 13.780385 11.17677 24.957156 24.959052 24.957156l124.795259 0 0 124.816119c0 13.778489 11.174874 24.951467 24.957156 24.951467 13.786074 0 24.959052-11.171081 24.959052-24.951467l0-124.816119 124.791467 0c13.786074 0 24.959052-11.17677 24.959052-24.957156C685.063585 285.197511 673.890607 274.020741 660.104533 274.020741z"  horiz-adv-x="1024" />

    
    <glyph glyph-name="selected" unicode="&#58900;" d="M404.576 14.108c-11.251 0-22.476 4.169-31.031 12.543l-258.013 251.788c-17.138 16.743-17.138 43.849 0 60.593 17.142 16.742 44.923 16.742 62.066 0l226.979-221.493 442.552 431.787c17.141 16.742 44.923 16.742 62.065 0 17.142-16.712 17.142-43.818 0-60.561l-473.582-462.115c-8.587-8.373-19.811-12.542-31.035-12.542v0 0zM404.576 14.108z"  horiz-adv-x="1024" />

    
    <glyph glyph-name="unfold" unicode="&#58914;" d="M890.336 469.088c-12.576 12.416-32.8 12.352-45.248-0.192l-327.84-330.848-332.416 329.44c-12.576 12.448-32.8 12.352-45.28-0.192-12.448-12.576-12.352-32.832 0.192-45.28l353.312-350.112c0.544-0.544 1.248-0.672 1.792-1.184 0.128-0.128 0.16-0.288 0.288-0.416 6.24-6.176 14.4-9.28 22.528-9.28 8.224 0 16.48 3.168 22.72 9.472l350.112 353.312c12.48 12.576 12.384 32.832-0.16 45.28z"  horiz-adv-x="1024" />

    
    <glyph glyph-name="xiala" unicode="&#58918;" d="M517.436772 213.34745l148.743683 148.775664c9.17855 9.17855 11.896936 22.866423 6.939879 34.859302-4.957057 11.960898-16.630126 19.732284-29.550454 19.732284L346.050532 416.714701c-12.920329 0-24.593398-7.803367-29.550454-19.732284-1.631032-3.965645-2.430557-8.123177-2.430557-12.248727 0-8.315063 3.262063-16.502202 9.370436-22.610575l148.775664-148.775664c6.01243-6.01243 14.135607-9.370436 22.610575-9.370436S511.456323 207.367001 517.436772 213.34745z"  horiz-adv-x="1024" />

    
    <glyph glyph-name="bianji" unicode="&#58959;" d="M819.2-75.716978 204.8-75.716978c-37.705956 0-68.266667 30.583467-68.266667 68.266667l0 614.4c0 37.6832 30.560711 68.266667 68.266667 68.266667l341.333333 0 45.511111 0 22.755556 0c12.583822 0 22.755556-10.171733 22.755556-22.755556s-10.171733-22.755556-22.755556-22.755556l-22.755556 0-45.511111 0L227.555556 629.705244c-25.122133 0-45.511111-20.388978-45.511111-45.511111l0-568.888889c0-25.122133 20.388978-45.511111 45.511111-45.511111l568.888889 0c25.122133 0 45.511111 20.388978 45.511111 45.511111l0 364.088889 0 41.3696 0 4.141511c0 12.583822 10.171733 22.755556 22.755556 22.755556s22.755556-10.171733 22.755556-22.755556l0-45.511111 0-386.844444C887.466667-45.133511 856.8832-75.716978 819.2-75.716978zM447.670044 225.725867c-8.874667-8.897422-23.278933-8.897422-32.176356 0s-8.897422 23.278933 0 32.176356L824.411022 669.072356c8.897422 8.897422 23.278933 8.897422 32.176356 0s8.897422-23.301689 0-32.176356L447.670044 225.725867z"  horiz-adv-x="1024" />

    
    <glyph glyph-name="shezhi" unicode="&#59040;" d="M973.056 163.424C954.464 159.584 934.528 155.904 913.408 152.48 909.44 141.632 904.992 130.944 900.16 120.448 912.64 103.136 924.16 86.432 934.56 70.56 951.2 45.216 947.744 11.648 926.304-9.792L821.76-114.304C809.408-126.656 793.024-133.056 776.512-133.056 764.384-133.056 752.16-129.6 741.44-122.56 725.568-112.192 708.896-100.672 691.552-88.16 681.088-92.992 670.464-97.408 659.648-101.376 656.16-122.816 652.416-142.88 648.512-161.312 642.208-190.88 616.128-212 585.92-212L438.08-212C407.872-212 381.792-190.88 375.488-161.312 371.552-142.88 367.84-122.816 364.352-101.376 353.6-97.408 342.976-93.024 332.576-88.224 314.944-100.928 298.112-112.48 282.304-122.72 271.648-129.664 259.52-133.056 247.488-133.056 230.976-133.056 214.592-126.656 202.24-114.304L97.696-9.792C76.352 11.584 72.832 44.992 89.28 70.304 99.52 86.144 111.072 102.944 123.776 120.576 118.976 130.976 114.592 141.568 110.624 152.352 89.184 155.84 69.12 159.584 50.688 163.488 21.12 169.792 0 195.872 0 226.08L0 373.92C0 404.128 21.12 430.208 50.688 436.512 69.12 440.448 89.184 444.16 110.624 447.648 114.592 458.432 118.976 469.024 123.776 479.424 111.072 497.056 99.52 513.856 89.28 529.696 72.832 555.04 76.352 588.416 97.696 609.792L202.24 714.304C214.592 726.656 230.976 733.056 247.488 733.056 259.52 733.056 271.648 729.664 282.304 722.72 298.112 712.48 314.944 700.928 332.576 688.224 342.976 693.024 353.6 697.408 364.352 701.376 367.84 722.816 371.552 742.88 375.488 761.312 381.792 790.88 407.872 812 438.08 812L585.92 812C616.128 812 642.208 790.88 648.512 761.312 652.416 742.88 656.16 722.816 659.648 701.376 670.4 697.408 681.024 693.024 691.424 688.224 709.056 700.928 725.856 712.48 741.696 722.72 752.352 729.664 764.48 733.056 776.512 733.056 793.024 733.056 809.408 726.656 821.76 714.304L926.304 609.792C947.648 588.416 951.168 555.04 934.72 529.696 924.48 513.856 912.928 497.056 900.224 479.424 905.056 468.96 909.44 458.336 913.408 447.488 934.528 444.096 954.464 440.448 973.056 436.576 1002.72 430.4 1024 404.224 1024 373.92L1024 226.08C1024 195.776 1002.72 169.6 973.056 163.424ZM960 373.92C931.04 379.936 898.912 385.376 864.288 390.144 855.648 424.032 842.336 455.936 824.928 485.248 846.208 513.344 865.12 540 881.056 564.512L776.512 669.056C752 653.12 725.344 634.208 697.248 612.928 667.968 630.304 636.096 643.616 602.272 652.256 597.472 687.168 592 719.392 585.92 748L438.08 748C432 719.392 426.528 687.168 421.728 652.256 387.904 643.616 356.032 630.304 326.752 612.928 298.656 634.208 272 653.12 247.488 669.056L142.944 564.512C158.88 540 177.792 513.344 199.072 485.248 181.696 455.968 168.384 424.096 159.744 390.272 124.832 385.472 92.608 380 64 373.92L64 226.08C92.608 220 124.832 214.528 159.744 209.728 168.384 175.904 181.696 144.032 199.072 114.752 177.792 86.656 158.88 60 142.944 35.488L247.488-69.056C272-53.12 298.656-34.208 326.752-12.928 356.032-30.304 387.904-43.616 421.728-52.256 426.528-87.2 432-119.392 438.08-148L585.92-148C592-119.392 597.472-87.2 602.272-52.256 636.16-43.584 668.064-30.272 697.376-12.864 725.216-33.952 751.776-52.832 776.512-69.056L881.056 35.488C864.832 60.224 845.952 86.784 824.864 114.624 842.272 143.968 855.616 175.936 864.288 209.856 898.912 214.624 931.04 220.064 960 226.08L960 373.92ZM512 108C405.952 108 320 193.952 320 300 320 406.048 405.952 492 512 492 618.048 492 704 406.048 704 300 704 193.952 618.048 108 512 108ZM512 428C441.312 428 384 370.688 384 300 384 229.312 441.312 172 512 172 582.688 172 640 229.312 640 300 640 370.688 582.688 428 512 428Z"  horiz-adv-x="1024" />

    
    <glyph glyph-name="gengduo" unicode="&#58899;" d="M753.600215 488.10547c43.464266 0 78.6991 35.811101 78.6991 79.989249 0 44.183309-35.234834 80.004731-78.6991 80.004731-43.476307 0-78.723182-35.821422-78.723182-80.004731C674.877033 523.91657 710.123908 488.10547 753.600215 488.10547zM753.600215 408.1059c-43.476307 0-78.723182-35.821422-78.723182-80.009891 0-44.190189 35.246875-79.99785 78.723182-79.99785 43.464266 0 78.6991 35.80594 78.6991 79.99785C832.299315 372.282758 797.064481 408.1059 753.600215 408.1059zM753.600215 168.093428c-43.476307 0-78.723182-35.814541-78.723182-79.99785 0-44.179868 35.246875-80.004731 78.723182-80.004731 43.464266 0 78.6991 35.826582 78.6991 80.004731C832.299315 132.278887 797.064481 168.093428 753.600215 168.093428z"  horiz-adv-x="1449" />

    
    <glyph glyph-name="xinjian" unicode="&#58938;" d="M933.875 235.266h-369.141v-369.141h-105.469v369.141h-369.141v105.469h369.141v369.141h105.469v-369.141h369.141v-105.469z"  horiz-adv-x="1024" />

    
    <glyph glyph-name="yichulixuanzhong" unicode="&#59063;" d="M668.784836 34.647357M685.85563 35.253154M674.90216 35.78732M814.765605 359.036445c-9.606799 17.246803-10.039657 34.036187-0.301875 51.383274 7.40055 13.183254 14.010085 26.809599 21.027919 40.20877 18.444071 35.215036 12.249999 54.837956-22.923082 72.441892-14.388708 7.201006-28.764114 14.429641-43.188638 21.559015-15.565511 7.692193-24.867364 19.606547-27.136034 37.238113-2.490727 19.354813-5.552459 38.651298-8.960069 57.867966-4.755304 26.811646-23.581068 40.265052-50.65775 36.325323-18.3356-2.667759-36.68962-5.4225-54.835909-9.118682-17.959024-3.657296-32.655747 1.049912-45.218878 14.024411-12.562107 12.974499-25.148773 25.934672-38.022988 38.59604-22.509666 22.13616-42.453904 22.23235-64.790632 0.275269-13.225209-13.001105-26.028816-26.429952-39.052434-39.636742-12.264325-12.437264-26.721595-16.788361-44.080961-13.323447-18.641569 3.720741-37.442774 6.769171-56.276724 9.364275-26.13524 3.601015-44.913932-10.232039-49.461505-36.165688-3.369747-19.22383-6.627954-38.492686-9.04091-57.853639-2.200108-17.645892-11.210319-29.703509-26.824949-37.417191-16.176424-7.990998-32.451086-15.796778-48.436152-24.152073-28.235065-14.759145-35.093263-36.103266-20.874423-64.475454 8.306176-16.573467 16.907065-33.000602 25.502837-49.426713 7.583722-14.494109 7.617491-28.875654 0.057305-43.37795-8.570189-16.439414-17.172101-32.864502-25.493627-49.429783-14.360056-28.584012-7.694239-49.555649 20.660552-64.403822 15.977903-8.367575 32.242332-16.191774 48.424896-24.165376 15.60542-7.689123 24.746614-19.677155 27.03268-37.294394 2.63706-20.318768 5.731538-40.608883 9.550517-60.736293 4.545526-23.953551 24.254404-37.238113 48.441269-33.469276 18.791995 2.927679 37.635155 5.643534 56.287981 9.309016 17.874089 3.51301 32.66598-0.890276 45.24753-13.983479 12.511965-13.021571 25.172309-25.910113 38.054711-38.564317 22.738887-22.335704 42.083467-22.468734 64.662719-0.384763 13.257955 12.967336 26.158776 26.303063 39.122019 39.569204 12.273535 12.56006 26.747177 16.685008 44.060495 13.354146 20.575618-3.958148 41.337477-6.944156 58.219983-9.725502 28.078499-0.237407 43.332924 12.266371 47.552016 36.394908 3.361561 19.225877 6.691399 38.485523 9.05319 57.850569 2.231831 18.302855 11.818163 30.378891 27.982308 38.190811 15.363919 7.424086 30.655184 15.007809 45.842071 22.786982 30.243815 15.492856 37.023218 36.178991 21.774933 66.224284C830.236971 329.687 822.834374 344.550523 814.765605 359.036445zM750.279918 272.601864c-11.316743-5.696746-22.666232-11.329023-33.968649-17.053398-11.691273-5.92085-18.684548-15.059997-20.431332-28.377304-1.964748-14.987343-4.409426-29.92045-7.012717-44.813648-3.745301-21.428032-14.803147-30.432103-40.560788-29.810956-11.0558 1.738597-26.601868 3.5345-41.847084 6.756891-16.072047 3.397377-28.634154-1.286296-39.461757-13.06148-7.593955-8.258081-15.717983-16.030092-23.623024-24.001647-23.104207-23.295566-36.799114-23.185049-60.275805 0.483001-8.593725 8.66331-17.22429 17.290805-25.741267 26.028816-9.604752 9.855462-20.880563 13.484106-34.601052 10.973936-15.827477-2.895957-31.740912-5.688559-47.742351-7.16826-20.853957-1.927909-33.121352 8.131191-36.774555 28.996404-2.607384 14.891152-4.79419 29.862121-6.850012 44.841278-1.88186 13.709233-8.903787 23.37743-21.304212 29.430286-12.701277 6.199189-25.379017 12.4608-37.892005 19.026332-23.52581 12.345166-28.489868 27.860535-16.637935 51.865251 5.613858 11.370978 11.187807 22.800285 17.564028 33.745569 8.436136 14.480806 8.532327 28.309766 0.138146 42.886763-7.05058 12.243859-13.493316 24.892947-19.374256 37.743626-9.217942 20.144806-3.944845 35.846416 15.587 46.607504 13.224186 7.28594 26.89044 13.774725 40.426735 20.484543 12.278651 6.086625 19.535939 15.443737 21.291932 29.363771 1.953492 15.47853 4.462638 30.901801 7.225565 46.25958 3.312442 18.409279 14.922874 27.839045 33.615609 27.757181 16.70138-0.072655 32.93511-3.992941 49.209772-6.974855 15.536858-2.845815 27.713178 1.490957 38.229696 12.747325 8.327666 8.91402 16.999163 17.510816 25.63075 26.136264 21.160949 21.145599 35.81981 21.0095 57.256028-0.48607 8.271384-8.29492 16.698311-16.45374 24.619724-25.075095 10.81737-11.773138 23.324218-16.232706 39.449477-13.242606 16.255219 3.01466 32.485879 6.993275 49.208748 6.894014 17.934464-0.107447 29.572526-9.339716 32.839943-26.955932 2.934842-15.820314 5.276167-31.762401 7.416923-47.712675 1.784646-13.297864 8.871041-22.433942 20.515243-28.359908 12.594853-6.40999 25.350364-12.505825 37.886889-19.026332 23.671119-12.311397 29.025057-28.099988 17.415648-51.726082-6.237051-12.69309-12.869099-25.198915-19.571754-37.655621-6.566556-12.204973-6.442736-24.157189 0.080841-36.3243 5.993504-11.177574 11.742439-22.488177 17.482163-33.79878C784.312012 301.211459 779.60992 287.368172 750.279918 272.601864zM668.13606 447.030545c0.054235-9.179057-3.701299-13.044084-7.528464-16.883529-56.83545-57.032948-113.613594-114.124224-170.546258-171.058934-10.939143-10.940167-17.759479-10.973936-28.591175-0.187265-32.848129 32.712029-65.578578 65.544809-98.114598 98.5669-11.706623 11.881608-10.613732 18.212804 4.223185 32.961716 14.159488 14.075577 20.079314 14.97097 31.756261 3.452635 22.928199-22.617114 45.806255-45.298695 68.088748-68.545142 6.724145-7.014764 10.244318-6.54302 16.885576 0.211824 45.843094 46.626947 92.183516 92.764753 138.306996 139.116431 6.40078 6.432503 13.488199 13.735839 22.64372 7.650237C655.531997 465.488942 666.154939 457.788563 668.13606 447.030545z"  horiz-adv-x="1024" />

    
    <glyph glyph-name="zhidingshoupaiyuanxiadan" unicode="&#58907;" d="M881.658 114.674l-97.378-97.426-117.054 117.056-128.6-128.554 31.126-31.128L667.178 72l117.054-117.054 128.554 128.6L881.658 114.674zM758.06 214.168l38.296 34.448c-37.48 27.04-81.744 45.274-129.95 51.142 77.844 49.938 129.564 137.068 129.564 236.37 0 155.112-125.764 280.874-280.922 280.874-155.16 0-280.826-125.762-280.826-280.874 0-99.302 51.72-186.432 129.516-236.37-138.898-16.936-246.57-135.096-246.57-278.564l0-23.38c0-15.974 1.636-31.514 4.186-46.812l47.918 0c-3.462 15.732-5.34 31.994-5.34 48.688l0 19.678c0 130.286 110.944 235.888 247.82 235.888l206.544 0C670.208 255.254 718.32 240.05 758.06 214.168zM281.038 536.126c0 129.276 104.786 234.06 234.062 234.06 129.274 0 234.06-104.786 234.06-234.06 0-129.274-104.788-234.06-234.06-234.06C385.824 302.066 281.038 406.854 281.038 536.126z"  horiz-adv-x="1024" />

    
    <glyph glyph-name="bianji1" unicode="&#58888;" d="M878.059652 469.61389c-11.081383 0-20.068058-8.968256-20.135596-20.032242l0-0.063445 0-0.062422 0-0.039909 0-357.101117c0-22.246677-18.036795-40.267099-40.261982-40.267099L432.586834 52.047656l-0.034792 0L213.569632 52.047656c-22.225187 0-40.267099 18.019399-40.267099 40.267099L173.302533 675.162336c0 22.252817 18.040888 40.267099 40.267099 40.267099L602.649068 715.429435c11.103896 0.022513 20.113083 9.031701 20.113083 20.131503 0 11.125385-9.010211 20.134573-20.113083 20.134573L209.540875 755.69551c-42.25436 0-76.504418-34.250058-76.504418-76.508511l0-197.080587 0-0.063445 0-393.755945c0-42.257429 34.250058-76.504418 76.504418-76.504418L821.68776 11.782603c42.258453 0 76.508511 34.246989 76.508511 76.504418L898.196271 449.582671C898.128733 460.646658 889.146151 469.61389 878.059652 469.61389L878.059652 469.61389 878.059652 469.61389zM503.762897 211.626117l383.057279 383.021463c22.785959 22.768563 20.691251 61.97654-4.690836 87.319741l-36.180014 36.2189c-25.359574 25.38311-64.550155 27.504424-87.336114 4.735861L375.555933 339.820801 503.762897 211.626117 503.762897 211.626117 503.762897 211.626117zM787.148106 694.314535c8.654101 8.635681 23.514553 7.849782 33.147958-1.76111l36.19741-36.196387c9.609869-9.673313 10.419304-24.51637 1.766226-33.129538l-42.508139-42.508139-70.553892 71.64883L787.148106 694.314535 787.148106 694.314535 787.148106 694.314535zM785.676591 550.645414 500.877173 265.807111l-71.131037 71.109548 285.376563 285.377586L785.676591 550.645414 785.676591 550.645414 785.676591 550.645414zM375.368668 339.099371l-39.376823-144.292314c-1.720178-6.305613 0.080841-12.988826 4.646833-17.639752 4.630461-4.562922 11.33107-6.349615 17.623379-4.650927l144.29743 39.355333L473.021755 241.459586l-93.689822-25.604144 25.550932 93.748151L375.368668 339.099371 375.368668 339.099371 375.368668 339.099371zM375.368668 339.099371"  horiz-adv-x="1024" />

    
    <glyph glyph-name="saomiao" unicode="&#58883;" d="M42.666667 363.328l0 42.666667 1024 0 0-42.666667L42.666667 363.328zM1002.666667 789.994667c0 23.552-19.093333 42.666667-42.666667 42.666667L725.333333 832.661333 725.333333 875.328l234.666667 0c47.125333 0 85.333333-38.208 85.333333-85.333333l0-256-42.666667 0L1002.666667 789.994667zM106.666667 789.994667l0-256L64 533.994667 64 789.994667c0 47.125333 38.208 85.333333 85.333333 85.333333l234.666667 0 0-42.666667L149.333333 832.661333C125.76 832.661333 106.666667 813.568 106.666667 789.994667zM106.666667-20.672c0-23.573333 19.093333-42.666667 42.666667-42.666667l234.666667 0 0-43.136L149.333333-106.005333c-47.125333 0-85.333333 38.208-85.333333 85.333333L64 235.328l42.666667 0L106.666667-20.672zM1002.666667-20.672 1002.666667 235.328l42.666667 0 0-256c0-47.125333-35.797333-86.933333-82.922667-86.933333L725.333333-107.136 725.333333-63.338667l234.666667 0C983.573333-63.338667 1002.666667-44.245333 1002.666667-20.672z"  horiz-adv-x="1110" />

    
    <glyph glyph-name="tishi" unicode="&#58967;" d="M512-128c-281.6 0-512 230.4-512 512s230.4 512 512 512 512-230.4 512-512S793.6-128 512-128zM512 832C262.4 832 64 633.6 64 384s198.4-448 448-448 448 198.4 448 448S761.6 832 512 832zM614.4 582.4c25.6-25.6 38.4-51.2 38.4-89.6 0-32-6.4-57.6-25.6-76.8C627.2 403.2 608 390.4 576 364.8 563.2 352 556.8 339.2 550.4 332.8c0-6.4-6.4-12.8-6.4-25.6 0-19.2-19.2-32-32-32l0 0c-19.2 0-38.4 19.2-32 38.4 0 12.8 6.4 25.6 6.4 32 6.4 19.2 32 44.8 70.4 76.8l12.8 12.8c12.8 12.8 19.2 32 19.2 44.8 0 19.2-6.4 38.4-19.2 51.2C556.8 550.4 537.6 556.8 512 556.8c-32 0-51.2-6.4-64-25.6C441.6 524.8 435.2 512 435.2 492.8c0-19.2-19.2-32-32-32l0 0c-19.2 0-38.4 19.2-32 44.8C377.6 537.6 390.4 556.8 403.2 576c25.6 25.6 64 38.4 108.8 38.4C556.8 614.4 595.2 608 614.4 582.4zM537.6 230.4c6.4-6.4 12.8-19.2 12.8-32 0-12.8-6.4-25.6-12.8-32-12.8-6.4-19.2-12.8-32-12.8-12.8 0-25.6 6.4-32 12.8-6.4 6.4-12.8 19.2-12.8 32 0 12.8 6.4 25.6 12.8 32 6.4 6.4 19.2 12.8 32 12.8C518.4 243.2 531.2 236.8 537.6 230.4z"  horiz-adv-x="1024" />

    
    <glyph glyph-name="bianji2" unicode="&#59020;" d="M889.886331-102.4 128.592465-102.4C71.813834-102.4 25.600002-54.679168 25.600002 4.070369L25.6 763.909877C25.6 822.65722 71.813832 870.4 128.592463 870.4L617.494093 870.4C635.628529 870.4 650.345377 855.155144 650.345377 836.429388 650.345377 817.668516 635.628529 802.445607 617.494093 802.445607L133.608461 802.445605C110.315807 802.445605 91.323793 782.863889 91.323793 758.765341L91.323793 9.252214C91.323793-14.837555 110.311562-34.38635 133.608461-34.38635L884.914908-34.38635C908.241528-34.38635 927.155-14.837555 927.155 9.252214L927.155003 468.454656C927.22293 487.360384 942.00983 502.519644 960.044495 502.519644 978.07916 502.519644 992.823603 487.351606 992.895777 468.667548L992.895777 4.070369C992.895777-54.679168 946.707418-102.4 889.886331-102.4ZM976.487117 649.465917 500.043756 156.93154C498.536622 155.324972 496.526403 154.550218 494.47585 154.550218 494.263578 154.550218 494.125599 154.804813 493.832666 154.804813L315.663918 104.566584C313.021128 103.840115 310.331635 103.506511 307.652756 103.506511 299.53121 103.506511 291.912755 106.721846 286.12833 112.559926 278.393121 120.763968 275.465887 132.407209 278.318828 143.207662L327.270973 328.755507C327.551171 329.806799 328.183744 330.682511 328.820562 331.51872 329.175058 332.065216 329.034957 332.767542 329.531676 333.232832L805.894374 825.898894C820.082665 840.516045 839.388841 848.540116 860.380462 848.540116 884.165591 848.540116 907.99317 838.084243 925.639378 819.810609L970.634765 773.215693C988.306445 754.985954 998.4 730.389193 998.4 705.788044 998.402125 684.0774 990.645688 664.115991 976.487117 649.465917ZM882.620247 775.386316C874.150577 784.171971 859.851907 785.295691 852.481807 777.624978L805.82857 729.388376 882.545951 648.809679 929.872092 697.706906C933.192033 701.113185 934.992102 705.858272 935.03031 711.099377 935.03031 717.477372 932.34294 723.936572 927.645353 728.793594L882.620247 775.386316ZM350.915999 179.662748 442.029699 205.420541 375.760366 273.945574 350.915999 179.662748ZM413.549105 323.779965 490.945759 243.844337 834.099013 598.626322 757.341299 679.264276 413.549105 323.779965Z"  horiz-adv-x="1024" />

    
    <glyph glyph-name="shaixuan" unicode="&#58897;" d="M592 21.9c-7.2 0-24.6 8.7-24.6 27.2L567.4 394.5c0 22.2 6.5 34.1 24 51.6l233.8 261.3-622.9-0.3 235.5-261c10-10 18.8-23.4 18.8-38.4l0-228.1c0-18.5-9.9-34.7-24.3-34.7-18.5 0-20.2 19.6-20.2 38.1l0 227.7L152.5 696.2c-8.9 9.8-11.2 23.9-5.8 36.1 5.4 12.1 17.4 19.9 30.6 19.9l670.7 0c13.3 0 25.3-7.8 30.6-19.9 5.4-12.1 3.1-26.3-5.8-36.1L613 410.6 613 49C613 30.6 599.2 21.9 592 21.9zM674.304 707.072l-115.712 0c-12.288 0-22.528 10.24-22.528 22.528l0 0c0 12.288 10.24 22.528 22.528 22.528l115.712 0c12.288 0 22.528-10.24 22.528-22.528l0 0C696.832 716.8 686.592 707.072 674.304 707.072z"  horiz-adv-x="1024" />

    
    <glyph glyph-name="xiazai" unicode="&#58911;" d="M720.153272 834.309986c-16.390295 0-29.67588-13.286608-29.67588-29.67588s13.285584-29.67588 29.67588-29.67588l176.032202 0 0-776.133749L125.169279-1.175523 125.169279 774.958226l175.959547 0c16.389272 0 29.67588 13.286608 29.67588 29.67588s-13.286608 29.67588-29.67588 29.67588L65.81752 834.309986l0-894.837268 889.720737 0L955.538257 834.309986 720.153272 834.309986zM274.198477 456.984245c-11.637038-11.540847-11.713786-30.330796-0.172939-41.967834l238.652402-240.626359 241.581104 241.580081c11.588943 11.588943 11.588943 30.378891 0 41.967834-11.587919 11.589966-30.379914 11.589966-41.967834 0l-170.615842-170.614819L541.675368 802.587494c0 16.389272-13.285584 29.67588-29.67588 29.67588-16.389272 0-29.67588-13.286608-29.67588-29.67588l0-513.307785L316.165288 456.811306C304.624441 468.448344 285.834492 468.526115 274.198477 456.984245z"  horiz-adv-x="1024" />

    
    <glyph glyph-name="lianxiben-copy" unicode="&#58915;" d="M597.064 100.847c-171.405 0-285.569 14.464-285.569 85.062 0 57.809 90.793 122.365 202.405 143.908 6.422 1.501 12.187 7.128 14.362 14.515 1.45 4.869 2.432 14.483-7.043 24.34-0.398 0.398-0.759 0.827-1.105 1.26-35.973 35.867-58.239 93.124-58.239 150.154 0 88.015 56.856 151.899 135.188 151.899s135.19-63.884 135.19-151.899c0-58.134-23.148-116.495-60.378-152.279-8.701-9.147-7.699-18.674-6.267-23.489 2.158-7.304 7.836-12.861 14.811-14.534 111.145-21.303 202.214-85.929 202.214-143.873-0.001-70.6-114.167-85.064-285.571-85.064zM549.37 391.923c14.604-16.434 19.782-37.874 13.861-57.93-5.902-19.937-21.887-35.196-41.737-39.821-107.777-20.818-173.544-77.052-173.544-108.262 0-22.18 43.223-48.608 249.114-48.608s249.114 26.427 249.114 48.608c0 30.57-67.56 87.928-173.422 108.246-20.42 4.849-36.248 20.038-42.1 39.804-6.145 20.731-0.379 42.998 15.379 59.569 30.468 29.276 49.764 78.726 49.764 126.557 0 67.976-40.596 115.442-98.734 115.442s-98.733-47.466-98.733-115.442c0-47.692 19.176-97.009 48.865-125.66 0.81-0.777 1.536-1.622 2.173-2.502zM135.291 222.367c-10.063 0-18.227 8.165-18.227 18.226l0 291.647c0 10.065 8.164 18.227 18.227 18.227 10.063 0 18.228-8.163 18.228-18.227v-291.647c0-10.061-8.165-18.226-18.228-18.226zM208.202 149.455h-145.823c-10.063 0-18.227 8.165-18.227 18.226 0 10.063 8.164 18.228 18.227 18.228h145.823c10.063 0 18.228-8.165 18.228-18.228 0-10.061-8.164-18.226-18.228-18.226zM208.202 586.921h-145.823c-10.063 0-18.227 8.168-18.227 18.23 0 10.063 8.164 18.226 18.227 18.226h145.823c10.063 0 18.228-8.163 18.228-18.226 0-10.062-8.164-18.23-18.228-18.23zM937.317-96h-777.723c-23.457 0-42.532 19.075-42.532 42.532l-0 145.821c0 10.065 8.164 18.227 18.227 18.227 10.063 0 18.228-8.163 18.228-18.227v-145.823c0-3.295 2.779-6.076 6.076-6.076h777.723c3.296 0 6.076 2.781 6.076 6.076v874.938c0 3.297-2.779 6.076-6.076 6.076h-777.723c-3.296 0-6.076-2.779-6.076-6.076v-145.824c0-10.063-8.164-18.226-18.228-18.226-10.063 0-18.227 8.163-18.227 18.226l-0 145.824c0.001 23.457 19.075 42.532 42.532 42.532h777.723c23.457 0 42.532-19.075 42.532-42.532v-874.938c-0.001-23.456-19.076-42.531-42.532-42.531z"  horiz-adv-x="1024" />

    
    <glyph glyph-name="asmkticon0239" unicode="&#59392;" d="M783.36 655.36C708.48 730.24 610.56 768 512 768s-196.48-37.76-271.36-112.64C90.24 505.6 90.24 262.4 240.64 112.64 315.52 37.76 413.44 0 512 0s196.48 37.76 271.36 112.64C933.76 262.4 933.76 505.6 783.36 655.36zM756.48 139.52C691.2 74.24 604.16 38.4 512 38.4s-179.2 35.84-244.48 101.12C202.24 204.8 166.4 291.84 166.4 384s35.84 179.2 101.12 244.48C332.8 693.76 419.84 729.6 512 729.6s179.2-35.84 244.48-101.12C821.76 563.2 857.6 476.16 857.6 384S821.76 204.8 756.48 139.52zM512 198.4m-38.4 0a6 6 0 1 0 76.8 0 6 6 0 1 0-76.8 0ZM512 595.2c-58.24 0-105.6-47.36-105.6-105.6 0-10.88 8.32-19.2 19.2-19.2s19.2 8.32 19.2 19.2C444.8 526.72 474.88 556.8 512 556.8s67.2-30.08 67.2-67.2c0-6.4-0.64-29.44-12.8-49.28-3.84-4.48-21.12-16.64-30.08-22.4-8.96-5.76-13.44-8.96-16.64-12.16-25.6-23.04-27.52-47.36-27.52-50.56l0-49.92c0-10.88 8.32-19.2 19.2-19.2s19.2 8.32 19.2 19.2l0 49.28c0 0 1.92 10.88 14.72 22.4 1.28 1.28 7.68 5.76 12.8 8.96 23.68 16.64 35.2 24.96 40.32 33.28 17.28 27.52 19.2 57.6 19.2 69.76C617.6 547.84 570.24 595.2 512 595.2z"  horiz-adv-x="1024" />

    
    <glyph glyph-name="daoru1" unicode="&#59097;" d="M480.1776 173.3536c8.6064-8.6048 19.2016-12.9056 31.7824-12.9056l0.0352-0.0352c12.5888 0 23.1856 4.3008 31.7888 12.9072l223.5568 223.5552c8.6064 9.0784 12.912 19.6736 12.912 31.7888 0 12.3408-4.3712 22.8816-13.1152 31.6208-8.7408 8.7392-19.2784 13.1088-31.6224 13.1088-12.1152 0-22.712-4.3024-31.7872-12.9104l-147.032-147.4016L556.696 831.08c0 12.336-4.3712 22.8752-13.1152 31.6208-8.7408 8.7376-19.2784 13.1072-31.6208 13.1072-12.336 0-22.8736-4.3696-31.6192-13.1072-8.7408-8.7456-13.1088-19.2848-13.1088-31.6208l0-517.9984-147.0384 147.4016c-8.6064 8.608-19.2016 12.9104-31.7888 12.9104-12.8064 0-23.4576-4.2464-31.9536-12.7408-8.4928-8.4928-12.7392-19.1456-12.7392-31.9568 0-12.5824 4.3024-23.1776 12.9088-31.7856L480.1776 173.3536zM959.0816 249.8736c0.016 0 0.032-0.0016 0.0464-0.0016s0.032 0.0016 0.0496 0.0016L959.0816 249.8736zM990.7008 236.7616c-8.7248 8.7328-19.2528 13.1008-31.5712 13.1104-12.3152-0.0112-22.8368-4.3776-31.5712-13.1104-8.7408-8.7408-13.1056-19.2816-13.1056-31.6224l0-178.8224c0-12.3408-4.2496-22.8816-12.7408-31.6208-8.5008-8.7408-18.8032-13.1088-30.9184-13.1088L154.3888-18.4128c-12.3408 0-22.8816 4.368-31.6256 13.1088-8.7408 8.7392-13.1088 19.28-13.1088 31.6208L109.6544 205.1392c0 12.3408-4.368 22.8816-13.1088 31.6224-8.744 8.744-19.2832 13.112-31.6192 13.112-12.3424 0-22.8816-4.368-31.6256-13.112-8.7408-8.7408-13.1088-19.2816-13.1088-31.6224l0-178.8224c0-36.5472 13.04-68.2144 39.1312-94.9936 26.7776-26.0896 58.4464-39.1312 94.9936-39.1312l716.4048 0c36.5744 0 68.016 13.1552 94.3248 39.464 25.8432 25.8448 38.7632 57.3968 38.7632 94.6608L1003.8096 205.1392C1003.8096 217.48 999.44 228.0208 990.7008 236.7616z"  horiz-adv-x="1024" />

    
    <glyph glyph-name="riqi" unicode="&#58997;" d="M329.508177 607.209688l11.081383 0c16.651238 0 23.085788 24.128537 23.085788 40.778752L363.675348 781.080667c0 16.651238-8.311293 35.178197-24.931832 35.178197l-11.081383 0c-16.651238 0-24.009833-18.526959-24.009833-35.178197l0-138.662083C303.653323 631.338225 312.888661 607.209688 329.508177 607.209688L329.508177 607.209688zM685.414073 607.209688l11.081383 0c16.651238 0 24.00881 24.128537 24.00881 40.778752L720.504266 781.080667c0 16.651238-6.432503 35.178197-23.084765 35.178197l-11.081383 0c-16.651238 0-24.933879-18.526959-24.933879-35.178197l0-138.662083C661.40424 631.338225 674.301991 607.209688 685.414073 607.209688L685.414073 607.209688zM843.498508 756.238886l-92.580558 0 0-58.921971 92.580558 0c33.273824 0 61.005422-32.704866 61.005422-65.97869l0-55.466266L122.423749 575.871959l0 55.466266c0 33.273824 27.732621 65.97869 61.005422 65.97869l90.734514 0 0 58.921971-85.193311 0c-66.575278 0-123.918287-69.436442-123.918287-130.441864L65.052087 87.769228c0-61.006446 57.370639-135.087675 123.918287-135.087675l660.068314 0c61.005422 0 109.024066 68.541049 109.024066 135.087675L958.062753 625.797022C952.551226 686.802444 910.074809 756.238886 843.498508 756.238886L843.498508 756.238886zM901.376707 93.279732c0-38.812981-19.034519-81.439824-57.878199-81.439824L188.999027 11.839909c-33.270754 0-64.727187 42.626843-64.727187 75.899644L124.27184 520.40774l777.134543 0 0-427.128007L901.376707 93.279732 901.376707 93.279732zM631.825574 756.238886 393.194662 756.238886l0-58.921971 238.629889 0L631.824551 756.238886 631.825574 756.238886z"  horiz-adv-x="1024" />

    
    <glyph glyph-name="dianzan" unicode="&#59038;" d="M1008.190598 426.237781l-0.386639-6.594005c-0.922295-23.273849-9.020567-48.438603-26.863348-68.466296 11.928414-22.158234 16.486524-48.778926 12.218393-74.671649-6.787325-41.699608-23.032199-69.047261-42.038924-87.036038 8.243262-20.122339 11.831754-48.29462-0.04833-85.776441-7.079318-22.836866-17.940447-57.941462-51.737116-81.168994 5.334408-20.654974 3.686159-41.019969-0.726962-55.372931-5.915374-19.104391-13.189018-33.263027-13.480004-33.893329-22.49755-40.488341-60.270357-60.61068-112.686105-60.61068L600.405384-127.352581c-87.52135 0-171.938514 17.989784-187.988055 21.625599-74.573982 17.115819-109.437935 25.50407-127.572709 29.965521-0.581972 0.194326-0.872958 0.241649-1.45493 0.387646-3.005513 0.776298-5.430061 1.405593-7.5163 1.940243-0.435976 0.09666-1.113601 0.290986-1.453923 0.387646-15.176583-31.711437-46.500374-54.306654-83.981188-54.306654l-94.406342 0c-52.027095 0-94.358012 42.32991-94.358012 94.358012L1.673925 470.507934c0 52.027095 42.32991 94.406342 94.358012 94.406342l94.406342 0c23.516505 0 46.402708-10.910466 62.938568-25.164754l-1.650263 1.405593c3.200846 1.453923 25.360088 12.364389 33.118037 16.43618C390.451407 613.111229 409.991774 722.550171 410.719742 785.922701c0.630302 51.640456 43.008542 93.632057 94.405335 93.632057 72.78175 0 155.017021-99.401434 155.017021-212.330195 0-47.275666-1.50326-73.84702-7.855616-103.376565 135.233998-3.587485 227.748427-3.442496 267.072824-13.771997 61.725287-17.649461 89.21793-68.319293 89.21793-108.079665C1008.57925 432.929453 1008.433254 430.359915 1008.190598 426.237781L1008.190598 426.237781zM221.907059 470.507934c0 17.407812-14.061976 31.467774-31.468781 31.467774l-94.406342 0c-17.358475 0-31.468781-14.060969-31.468781-31.467774l0-503.502503c0-17.358475 14.110306-31.419444 31.468781-31.419444l94.406342 0c17.407812 0 31.468781 14.060969 31.468781 31.419444L221.907059 470.507934 221.907059 470.507934zM908.305865 490.194297c-27.784636 7.273644-25.553407 11.782417-340.24222 11.782417 26.134372 77.727505 29.141899 90.62453 29.141899 165.247849 0 82.624931-58.816434 149.439957-92.07946 149.439957-19.685356 0-31.275461-16.43618-31.467774-31.467774-1.308934-107.207714-45.046451-237.737606-188.81369-297.281001-1.891913-0.777305-4.55811-1.600927-6.497346-2.376218-15.565236-4.65477-24.970428-18.038114-24.970428-32.777714l0.241649-434.600231c0-23.225519 26.619685-27.735299 26.619685-27.735299 8.193925-2.326881 15.08093-4.65477 145.804142-34.76528 2.231229-0.485312 87.957326-20.074009 174.363062-20.074009L772.441565-64.413006c32.438398 0 47.712648 10.279157 57.263837 27.443306 0.194326 0.436982 4.849096 9.892518 8.775897 22.692883 3.588492 11.684751 1.987566 44.219809-32.438398 44.219809l-49.360898 0c-8.728574 0-15.710225 7.079318-15.710225 15.759562 0 8.728574 6.982658 15.709218 15.710225 15.709218l51.300133 0c66.961022 0 73.070722 29.481215 83.10823 61.241989 7.611953 24.146807 12.31606 64.634141-40.827657 64.634141l-61.919613 0c-8.728574 0-15.757548 7.079318-15.757548 15.710225 0 8.727567 7.028974 15.758555 15.757548 15.758555l74.719978 0c53.143716 0 64.148828 44.365805 68.029313 67.834987 3.10318 18.861735-3.10318 58.040135-50.330516 58.040135l-60.951002 0c-8.727567 0-15.757548 7.029981-15.757548 15.759562 0 8.678231 7.029981 15.709218 15.757548 15.709218l62.938568 0c55.034622 0 61.580298 30.547493 62.161263 46.111722 0.436982 10.57115 0.777305 8.970224 0.777305 19.783023C945.690019 451.839518 942.731829 480.351115 908.305865 490.194297L908.305865 490.194297zM143.258266-32.993563c-26.087049 0-47.226329 21.141293-47.226329 47.227336 0 26.037712 21.140287 47.179006 47.226329 47.179006 26.039726 0 47.180013-21.141293 47.180013-47.179006C190.437272-11.853276 169.296985-32.993563 143.258266-32.993563L143.258266-32.993563zM143.258266 29.942992c-8.678231 0-15.758555-7.029981-15.758555-15.709218s7.080325-15.758555 15.758555-15.758555c8.680244 0 15.711232 7.079318 15.711232 15.758555S151.937503 29.942992 143.258266 29.942992L143.258266 29.942992z"  horiz-adv-x="1024" />

    
    <glyph glyph-name="zengjia" unicode="&#58902;" d="M211.14695 354.073941 816.880469 354.073941C833.976676 354.073941 847.839245 367.934809 847.839245 385.032716 847.839245 402.135732 833.978378 415.996599 816.880469 415.996599L211.14695 415.9966C194.043935 415.9966 180.183068 402.135732 180.183068 385.032717 180.18477 367.934809 194.045637 354.073941 211.14695 354.073941L211.14695 354.073941 211.14695 354.073941 211.14695 354.073941ZM480.981188 685.835945 480.981188 80.097317C480.981188 62.999408 494.842055 49.138541 511.939963 49.138541 529.03787 49.138541 542.898737 62.997705 542.898737 80.097317L542.898737 685.835945C542.898737 702.932149 529.039573 716.79472 511.939963 716.79472 494.842055 716.793017 480.981188 702.932149 480.981188 685.835945L480.981188 685.835945 480.981188 685.835945 480.981188 685.835945ZM511.825257-125.691944C793.960311-125.691944 1022.671432 103.019177 1022.671432 385.154233 1022.671432 667.28248 793.958609 895.9936 511.825257 895.9936 229.697011 895.9936 0.984188 667.28248 0.984188 385.154233 0.984189 103.019177 229.697011-125.691944 511.825257-125.691944L511.825257-125.691944 511.825257-125.691944 511.825257-125.691944ZM513.902199-65.849636C265.973174-65.849636 64.983788 135.141453 64.983788 383.075588 64.983788 631.004614 265.973174 831.994 513.902199 831.994 761.836333 831.994 962.827422 631.002911 962.827422 383.075588 962.827422 135.141453 761.836333-65.849636 513.902199-65.849636L513.902199-65.849636 513.902199-65.849636 513.902199-65.849636Z"  horiz-adv-x="1024" />

    
    <glyph glyph-name="shanchu-copy" unicode="&#58898;" d="M782.246 655.473c36.609-36.609 64.905-79.292 84.184-126.795 18.652-45.9 28.085-94.451 28.011-144.264 0.070-49.808-9.359-98.363-28.015-144.261-19.279-47.504-47.569-90.189-84.175-126.794-36.607-36.607-79.295-64.9-126.798-84.179-45.896-18.655-94.451-28.085-144.26-28.015-49.808-0.070-98.365 9.358-144.26 28.015-47.504 19.277-90.192 47.569-126.801 84.179-36.605 36.604-64.895 79.29-84.173 126.794-18.657 45.895-28.085 94.452-28.015 144.261-0.073 49.812 9.359 98.363 28.011 144.264 19.28 47.502 47.576 90.186 84.183 126.794 36.605 36.605 79.287 64.899 126.79 84.178 45.9 18.652 94.451 28.085 144.264 28.012 49.814 0.073 98.363-9.36 144.265-28.012 47.502-19.277 90.185-47.572 126.789-84.177M827.505 700.732c-174.675 174.675-457.947 174.675-632.622-0.001-174.68-174.68-174.681-457.951-0.006-632.626 174.681-174.681 457.952-174.679 632.632 0 174.676 174.675 174.676 457.946-0.004 632.627v0 0zM557.129 382.513l159.608 159.607-45.223 45.224-159.608-159.608-159.144 159.143-45.345-45.345 159.143-159.144-156.863-156.863 45.201-45.201 156.864 156.864 157.359-157.357 45.333 45.333-157.326 157.347zM714.466 225.176z"  horiz-adv-x="1024" />

    
    <glyph glyph-name="dingwei" unicode="&#58905;" d="M537.6-33.28c-7.68 0-15.36 2.56-20.48 10.24C488.96 10.24 256 317.44 256 460.8c0 151.04 125.44 273.92 281.6 273.92S819.2 611.84 819.2 460.8c0-140.8-235.52-450.56-261.12-483.84C552.96-30.72 545.28-33.28 537.6-33.28zM537.6 683.52c-128 0-230.4-99.84-230.4-222.72 0-97.28 151.04-320 230.4-424.96 79.36 107.52 230.4 330.24 230.4 424.96C768 583.68 663.04 683.52 537.6 683.52zM537.6 350.72c-56.32 0-102.4 46.08-102.4 102.4s46.08 102.4 102.4 102.4c56.32 0 102.4-46.08 102.4-102.4S593.92 350.72 537.6 350.72zM537.6 504.32c-28.16 0-51.2-23.04-51.2-51.2s23.04-51.2 51.2-51.2c28.16 0 51.2 23.04 51.2 51.2S565.76 504.32 537.6 504.32z"  horiz-adv-x="1024" />

    
    <glyph glyph-name="youxiang" unicode="&#58945;" d="M884.60523 729.167321 139.395794 729.167321c-41.278125 0-74.888618-37.275975-74.888618-83.20605l0-507.318374c0-45.930075 33.610492-83.135442 74.888618-83.135442l745.209436 0c41.470507 0 74.887594 37.205367 74.887594 83.135442L959.492824 645.96127C959.461101 691.890322 926.041968 729.167321 884.60523 729.167321L884.60523 729.167321 884.60523 729.167321zM846.969051 658.090519 566.553477 382.050602c-24.473391-24.258497-42.620703-36.210713-54.282301-36.210713-11.661597 0-29.807886 11.988032-54.248531 36.210713L177.574325 658.090519 846.969051 658.090519 846.969051 658.090519 846.969051 658.090519zM129.74704 165.703205 129.74704 605.351364l222.61924-216.774115L129.74704 165.703205 129.74704 165.703205 129.74704 165.703205zM184.411033 127.470439 400.961044 340.945415l35.495422-34.580586c20.60734-19.967774 45.974078-30.254048 75.846432-30.254048 30.03199 0 55.239092 10.250458 75.942623 30.254048l35.495422 34.580586 216.518289-213.474976L184.411033 127.470439 184.411033 127.470439 184.411033 127.470439zM894.859781 165.703205 672.207795 388.541433l222.651986 216.773092L894.859781 165.703205 894.859781 165.703205 894.859781 165.703205z"  horiz-adv-x="1024" />

    
    <glyph glyph-name="guanbi" unicode="&#58895;" d="M544.512 384l404.544 404.544c8.704 8.704 8.576 23.424-0.192 32.256-8.896 8.832-23.616 8.96-32.32 0.192L512 416.512 107.456 821.056C98.752 829.696 84.032 829.632 75.136 820.8 66.368 812.032 66.304 797.248 75.008 788.544L479.488 384l-404.48-404.544c-8.704-8.704-8.64-23.552 0.192-32.384 8.768-8.832 23.616-8.832 32.256-0.128L512 351.488l404.544-404.544c8.704-8.704 23.424-8.64 32.32 0.192 8.768 8.832 8.896 23.616 0.192 32.32L544.512 384z"  horiz-adv-x="1024" />

    
    <glyph glyph-name="yulan1" unicode="&#58923;" d="M1013.472 761.44C1013.472 835.648 953.12 896 878.912 896L145.088 896C70.88 896 10.528 835.648 10.528 761.44l0-596.416c0-0.032 0-0.032 0-0.064l0-156.704c0-74.208 60.352-134.56 134.56-134.56l625.92 0c20.32 0 36.8 16.48 36.8 36.8 0 20.32-16.48 36.8-36.8 36.8L145.088-52.704c-33.632 0-60.992 27.36-60.992 60.992l0 635.328L84.096 761.44c0 33.632 27.36 60.992 60.992 60.992l733.824 0c33.632 0 60.992-27.36 60.992-60.992l0-642.112c0-20.32 16.48-36.768 36.768-36.768 20.32 0 36.8 16.48 36.8 36.768L1013.472 761.44 1013.472 761.44zM738.816 215.456c41.152 51.872 63.52 115.68 63.52 182.912 0 78.816-30.688 152.896-86.4 208.608-55.712 55.712-129.824 86.4-208.608 86.4-78.816 0-152.896-30.688-208.608-86.4-55.712-55.712-86.4-129.824-86.4-208.608 0-78.816 30.688-152.896 86.4-208.608 55.712-55.712 129.824-86.4 208.608-86.4 65.568 0 127.872 21.28 179.072 60.512l198.016-198.016c7.168-7.168 16.608-10.784 26.016-10.784 9.408 0 18.816 3.584 26.016 10.784 14.368 14.368 14.368 37.664 0 52.032L738.816 215.456 738.816 215.456zM285.856 398.368c0 122.112 99.328 221.472 221.44 221.472s221.472-99.36 221.472-221.472c0-122.112-99.36-221.472-221.472-221.472S285.856 276.256 285.856 398.368L285.856 398.368z"  horiz-adv-x="1024" />

    
    <glyph glyph-name="dianhua" unicode="&#58977;" d="M541.24544 598.15936a36.70016 36.70016 0 0 0-28.48768 43.27424 36.51584 36.51584 0 0 0 43.27424 28.50816 261.81632 261.81632 0 0 0 166.83008-113.27488 261.632 261.632 0 0 0 38.05184-197.98016c-1.96608-9.60512-7.5776-17.85856-15.7696-23.20384a36.2496 36.2496 0 0 0-27.5456-5.28384 36.67968 36.67968 0 0 0-28.4672 43.27424 188.94848 188.94848 0 0 1-27.48416 142.9504 188.86656 188.86656 0 0 1-120.4224 81.73568zM477.10208 491.04896a36.33152 36.33152 0 0 0-5.30432 27.56608 36.53632 36.53632 0 0 0 43.3152 28.4672c85.05344-17.5104 139.9808-101.02784 122.4704-186.10176a36.4544 36.4544 0 0 0-15.70816-23.20384 36.864 36.864 0 0 0-27.5456-5.26336 36.2496 36.2496 0 0 0-23.2448 15.74912 36.31104 36.31104 0 0 0-5.26336 27.52512 83.61984 83.61984 0 0 1-12.20608 63.32416 83.64032 83.64032 0 0 1-53.28896 36.18816 36.4544 36.4544 0 0 0-23.22432 15.74912zM747.74528 157.4912c13.98784-14.4384 37.43744-38.6048 36.80256-66.62144-0.512-19.12832-11.30496-38.33856-33.01376-58.5728-5.40672-5.3248-53.76-50.4832-131.13344-50.4832-21.1968 0-42.96704 3.35872-64.7168 9.97376-22.85568 6.94272-46.08 17.63328-69.0176 31.76448-90.43968 53.43232-160.256 122.22464-226.57024 223.1296-113.95072 173.42464-117.22752 321.9456-116.69504 349.94176 0.2048 129.18784 107.78624 180.0192 120.05376 185.38496C280.33024 789.83168 295.07584 793.6 308.6336 793.6c6.51264 0 12.73856-0.88064 18.49344-2.64192 11.8784-3.60448 28.34432-12.92288 39.40352-36.90496 15.09376-32.52224 29.3888-79.1552 39.1168-128 10.28096-50.64704-18.14528-64.88064-45.60896-78.6432-1.08544-0.45056-49.70496-20.74624-58.24512-24.2688a17.53088 17.53088 0 0 1-9.91232-21.6064c19.59936-59.392 49.54112-120.97536 86.528-178.09408 36.41344-56.2176 79.68768-108.07296 125.17376-150.07744a17.53088 17.53088 0 0 1 11.83744-4.62848c6.26688 0.47104 10.77248 2.88768 13.78304 6.7584a327.8848 327.8848 0 0 0 30.67904 34.57024c22.69184 21.56544 43.2128 32.03072 62.70976 32.03072 5.3248 0 10.6496-0.77824 15.74912-2.33472 4.89472-1.51552 12.8-5.77536 21.7088-11.6736 2.17088-1.39264 50.52416-32.44032 87.67488-70.61504zM597.03296 772.34176a36.51584 36.51584 0 0 1-43.29472-28.4672c-1.98656-9.58464-0.14336-19.3536 5.26336-27.56608 5.38624-8.192 13.6192-13.76256 23.20384-15.72864a293.51936 293.51936 0 0 0 186.92096-126.91456 293.39648 293.39648 0 0 0 42.68032-221.85984c-1.98656-9.60512-0.14336-19.37408 5.26336-27.5456a36.41344 36.41344 0 0 1 29.22496-16.4864c7.68-0.28672 15.11424 1.80224 21.52448 6.02112 8.192 5.38624 13.78304 13.63968 15.7696 23.20384 40.96 199.02464-87.552 394.3424-286.55616 435.34336z"  horiz-adv-x="1024" />

    
    <glyph glyph-name="cancel" unicode="&#58921;" d="M512 883.2A499.2 499.2 0 0 1 12.8 384 499.2 499.2 0 0 1 512-115.2 499.2 499.2 0 0 1 1011.264 384 499.2 499.2 0 0 1 512 883.2z m0-934.4A435.136 435.136 0 0 0 76.8 384 435.2 435.2 0 0 0 512 819.2 435.2 435.2 0 0 0 947.2 384c0-240.448-194.816-435.2-435.2-435.2z m194.56 573.76L567.872 383.808l138.56-138.56a39.68 39.68 0 0 0 0-56 39.744 39.744 0 0 0-56.064 0L511.872 327.808 373.44 189.44a39.744 39.744 0 0 0-56.064 0 39.68 39.68 0 0 0 0 56l138.368 138.368-138.496 138.56a39.744 39.744 0 0 0 0 56.064 39.744 39.744 0 0 0 56.064 0l138.56-138.56 138.688 138.688a39.616 39.616 0 0 0 56-56z"  horiz-adv-x="1024" />

    
    <glyph glyph-name="yuangong" unicode="&#58920;" d="M808.629-2.937h-585.869c-5.431 0-39.197 10.056-45.373 50.741-11.856 77.897 13.5 156.166 68.99 220.034 66.259 76.282 165.91 121.841 266.524 121.841 184.903 0 335.297-154.956 335.297-345.413 0-38.856-34.572-47.172-39.569-47.172M344.136 615.89c0.088 92.389 74.951 167.263 167.328 167.369 92.399-0.088 167.273-74.951 167.378-167.328-0.106-92.397-74.98-167.259-167.361-167.348-92.383 0.106-167.24 74.962-167.347 167.328M617.487 425.463c67.294 38 111.994 109.029 112.034 190.503-0.124 120.326-97.652 217.876-218.002 218.034-120.382-0.142-217.922-97.681-218.063-218.034 0.064-81.563 44.861-152.635 111.176-190.026-74.773-21.86-144.6-65.092-196.521-124.833-65.297-75.073-94.034-167.556-80.937-260.348 5.587-39.507 27.683-58.779 42.3-71.534l4.717-4.159c13.313-12.041 30.569-18.683 48.569-18.683h585.869c16.697 0 33.021 5.897 45.993 16.51l3.29 2.669c15.363 12.321 40.997 32.959 40.997 78.734 0 181.241-119.234 334.303-281.421 381.228z"  horiz-adv-x="1024" />

    
    <glyph glyph-name="shanchu" unicode="&#58904;" d="M0 896v-1024h1024v1024h-1024zM992.221-92.69h-956.91v956.91h956.91v-956.91zM529.655 419.31h-211.862v-35.31h388.414v35.31z"  horiz-adv-x="1024" />

    
    <glyph glyph-name="bangzhu" unicode="&#59022;" d="M511.829333 31.018667a353.152 353.152 0 1 0 0 706.261333 353.152 353.152 0 0 0 0-706.261333m0-73.386667c235.562667 0 426.538667 190.976 426.538667 426.538667 0 235.52-190.976 426.496-426.538667 426.496C276.309333 810.666667 85.333333 619.690667 85.333333 384.170667c0-235.562667 190.976-426.538667 426.496-426.538667M623.104 585.472c25.344-21.930667 38.016-52.138667 38.016-90.581333 0-30.805333-8.021333-56.576-24.064-77.226667-5.504-6.826667-23.210667-23.253333-53.205333-49.450667a97.578667 97.578667 0 0 1-26.624-32.938666 85.077333 85.077333 0 0 1-10.112-41.813334v-10.752h-67.797334v10.752c0 24.533333 4.266667 44.586667 12.672 60.16 8.021333 16.938667 31.872 43.093333 71.594667 78.592l10.752 12.032c11.818667 15.189333 17.749333 30.592 17.749333 46.208 0 21.546667-6.144 38.826667-18.346666 51.968-12.714667 12.672-30.634667 18.986667-53.888 18.986667-28.714667 0-49.365333-9.088-62.037334-27.221333-11.434667-15.232-17.109333-36.736-17.109333-64.597334H374.186667c0 45.994667 13.312 82.346667 39.893333 108.928 26.624 27.008 63.36 40.533333 110.208 40.533334 40.96 0 73.898667-11.178667 98.816-33.578667z m-76.629333-349.610667c8.874667-8.064 13.312-18.773333 13.312-32.341333 0-12.629333-4.693333-23.637333-13.952-32.938667a47.36 47.36 0 0 0-32.938667-12.629333c-13.098667 0-24.064 4.394667-32.938667 13.269333a43.946667 43.946667 0 0 0-13.312 32.298667c0 13.525333 4.437333 24.32 13.312 32.341333 8.448 8.405333 19.413333 12.629333 32.938667 12.629334 13.952 0 25.130667-4.224 33.578667-12.629334z"  horiz-adv-x="1024" />

    
    <glyph glyph-name="zuo" unicode="&#58908;" d="M605.391 125.78c-5.305 0-10.604 2.048-14.614 6.133l-203.42 207.234c-12.096 12.322-18.744 28.62-18.717 45.887 0.027 17.268 6.724 33.545 18.858 45.83l203.323 205.864c7.946 8.046 20.912 8.129 28.959 0.179 8.047-7.947 8.128-20.913 0.18-28.96l-203.323-205.862c-9.312-9.428-9.336-24.792-0.053-34.249l203.419-207.235c7.923-8.071 7.802-21.036-0.269-28.958-3.68-3.626-8.736-5.865-14.314-5.865-0.010 0-0.020 0-0.030 0z"  horiz-adv-x="1024" />

    
    <glyph glyph-name="you" unicode="&#58909;" d="M389.115 125.78c5.305 0 10.604 2.048 14.614 6.133l203.42 207.234c12.096 12.322 18.744 28.62 18.717 45.887-0.027 17.268-6.724 33.545-18.858 45.83l-203.323 205.864c-7.946 8.046-20.912 8.129-28.959 0.179-8.047-7.947-8.128-20.913-0.18-28.96l203.322-205.864c9.312-9.428 9.336-24.792 0.053-34.249l-203.418-207.233c-7.923-8.071-7.802-21.036 0.269-28.958 3.681-3.626 8.736-5.865 14.315-5.865 0.010 0 0.020 0 0.029 0z"  horiz-adv-x="1024" />

    
    <glyph glyph-name="dianhua1" unicode="&#59035;" d="M512 896C230.4 896 0 665.6 0 384s230.4-512 512-512 512 230.4 512 512S793.6 896 512 896z m0-944.64c-238.08 0-432.64 194.56-432.64 432.64 0 238.08 194.56 432.64 432.64 432.64S944.64 622.08 944.64 384c0-238.08-194.56-432.64-432.64-432.64z m130.56 343.04c-10.24 0-43.52-40.96-51.2-43.52-10.24-5.12-64-2.56-128 58.88-61.44 61.44-84.48 133.12-84.48 145.92 0 10.24 51.2 46.08 53.76 53.76 2.56 7.68-69.12 130.56-79.36 130.56-10.24 0-97.28-104.96-97.28-112.64 0-7.68 7.68-120.32 151.04-263.68 143.36-143.36 235.52-133.12 248.32-133.12 10.24 0 112.64 76.8 112.64 84.48 0 7.68-115.2 79.36-125.44 79.36z"  horiz-adv-x="1024" />

    
    <glyph glyph-name="tongxunlu" unicode="&#58880;" d="M102.394 555.063h118.313c11.414 0 20.666 9.253 20.666 20.666 0 11.414-9.253 20.666-20.666 20.666l-118.313 0c-11.414 0-20.666-9.253-20.666-20.666s9.253-20.666 20.666-20.666zM220.707 404.466h-118.313c-11.414 0-20.666-9.253-20.666-20.666 0-11.414 9.253-20.666 20.666-20.666h118.313c11.414 0 20.666 9.253 20.666 20.666 0 11.413-9.252 20.666-20.666 20.666zM220.707 213.248h-118.313c-11.414 0-20.666-9.253-20.666-20.666 0-11.414 9.253-20.666 20.666-20.666h118.313c11.414 0 20.666 9.253 20.666 20.666s-9.252 20.666-20.666 20.666zM851.711 831.361h-614.028c-50.864 0-92.098-41.233-92.098-92.098v-67.651h41.963l-0 56.787c0 39.561 21.837 61.398 61.398 61.398h592.458c39.561 0 61.398-21.837 61.398-61.398v-689.156c0-39.561-21.837-61.398-61.398-61.398h-592.458c-39.561 0-61.398 21.837-61.398 61.398v56.787h-41.963v-66.583c0-50.864 41.233-92.098 92.098-92.098h614.028c50.864 0 92.098 41.233 92.098 92.098l-0 709.815c0 50.863-41.233 92.098-92.098 92.098zM630.35 279.733c53.498 30.051 89.956 86.784 89.956 152.515 0 96.987-78.622 175.61-175.609 175.61s-175.61-78.622-175.61-175.61c0-65.87 36.613-122.702 90.297-152.703-51.716-22.331-103.228-64.247-124.715-116.409h44.617c28.57 53.841 94.496 91.082 159.103 93.501 2.090 0.001 4.191 0.002 6.309 0.002 2.381 0 4.747-0.001 7.095-0.003 64.604-2.421 130.526-39.661 159.094-93.501h44.617c-21.549 52.31-73.233 94.316-125.153 116.599zM409.715 432.249c0 74.546 60.436 134.982 134.982 134.982 74.549 0 134.982-60.436 134.982-134.982 0-74.549-60.433-134.982-134.982-134.982-74.547-0-134.982 60.433-134.982 134.982z"  horiz-adv-x="1024" />

    
    <glyph glyph-name="xinjianhetong-" unicode="&#58925;" d="M512 384m-512 0a512 512 0 1 1 1024 0 512 512 0 1 1-1024 0ZM700.6976 82.1504H358.8736c-28.032 0-50.8416 20.5184-50.8416 45.7472v450.688c0 25.2288 22.8096 45.7472 50.8416 45.7472h271.616l121.0624-99.4432v-396.992c0-25.2288-22.7968-45.7472-50.8544-45.7472zM358.8736 590.9888c-9.5104 0-17.5232-5.6704-17.5232-12.416v-450.688c0-6.72 8.0256-12.416 17.5232-12.416h341.824c9.5104 0 17.5232 5.6832 17.5232 12.416V503.0272H624.512V586.112l-5.952 4.8896-259.6864-0.0128zM677.5424 432.6784a9.984 9.984 0 0 0-9.9968-9.9968H520.96a9.984 9.984 0 1 0 0 19.9936h146.5856a9.984 9.984 0 0 0 9.9968-9.9968z m-229.4528-50.176H423.0528a37.696 37.696 0 0 0-37.6576 37.6576V445.1968a37.696 37.696 0 0 0 37.6576 37.6576h25.0368a37.6832 37.6832 0 0 0 37.632-37.6576v-25.0368a37.6832 37.6832 0 0 0-37.632-37.6576z m17.6384 62.6944c0 9.728-7.9104 17.664-17.6384 17.664H423.0528a17.664 17.664 0 0 1-17.664-17.664v-25.0368c0-9.7536 7.9104-17.664 17.664-17.664h25.0368a17.664 17.664 0 0 1 17.6384 17.664V445.1968z m-63.2832-98.6752h263.1808a9.984 9.984 0 1 0 0-19.9936H402.4448a9.984 9.984 0 1 0 0 19.9936z m0-66.0736h263.1808a9.984 9.984 0 1 0 0-19.9936H402.4448a9.9968 9.9968 0 0 0 0 19.9936z m0-69.4144h146.5856a9.984 9.984 0 1 0 0-19.9936H402.4448a9.9968 9.9968 0 0 0 0 19.9936zM727.5904 608.1408a12.928 12.928 0 0 0 12.9408 12.9408h38.8224v38.8224a12.928 12.928 0 1 0 25.8816 0v-38.8224h38.8224a12.9408 12.9408 0 0 0 0-25.8816h-38.8224v-51.7632a12.9408 12.9408 0 0 0-25.8816 0V595.2h-38.8224a12.928 12.928 0 0 0-12.9408 12.9408z"  horiz-adv-x="1024" />

    
    <glyph glyph-name="yichang2" unicode="&#58916;" d="M944.536 288.259H926.04c-19.829 0-36.106 16.277-36.106 36.106V598.566c0 19.83 16.277 36.107 36.106 36.107h18.497c19.83 0 36.107-16.278 36.107-36.107v-274.2c0-19.83-16.278-36.107-36.107-36.107z m-52.383-87.602h86.27v-86.27h-86.27zM935.362 853.827c-260.735 0-472.046-211.311-472.046-471.899s211.31-472.046 472.046-472.046 472.046 211.311 472.046 472.046S1195.95 853.827 935.362 853.827z m0-863.445c-216.194 0-391.547 175.204-391.547 391.398s175.353 391.547 391.547 391.547 391.399-175.204 391.399-391.399-175.205-391.546-391.4-391.546z"  horiz-adv-x="1879" />

    
    <glyph glyph-name="xuanze" unicode="&#59009;" d="M288.207855-98.938743c-9.004897 0-18.112122 3.479165-24.968123 10.335166-13.81433 13.81433-13.81433 36.224243 0 50.038573l422.51384 422.51384-422.51384 422.616168c-13.81433 13.81433-13.81433 36.224243 0 50.038573s36.224243 13.81433 50.038573 0l447.584291-447.584291c13.81433-13.81433 13.81433-36.224243 0-50.038572L313.175977-88.603577c-6.856001-6.856001-15.860897-10.335165-24.968122-10.335166z"  horiz-adv-x="1024" />

    
    <glyph glyph-name="dengdaiqueren" unicode="&#59462;" d="M510.999207 831.574688c-245.292636 0-445.986517-200.693882-445.986518-445.986517 0-245.293659 200.693882-445.98754 445.986518-445.98754 245.293659 0 445.98754 200.693882 445.98754 445.98754 0 245.292636-200.693882 445.986517-445.98754 445.986517z m0-802.776549c-196.234313 0-356.789009 160.554696-356.78901 356.790032 0 196.234313 160.554696 356.789009 356.78901 356.789009 196.235336 0 356.790032-160.554696 356.790032-356.789009S707.235566 28.798139 510.999207 28.798139zM681.887248 358.765269H510.421039V584.550619c0 19.061125-15.438621 34.515095-34.516119 34.515094-19.078521 0-34.516118-15.45397-34.516118-34.515094v-260.301468c0-19.061125 15.437597-34.515095 34.516118-34.515095h205.982328c19.077497 0 34.515095 15.45397 34.515095 34.515095 0 19.062148-15.436574 34.516118-34.515095 34.516118z"  horiz-adv-x="1024" />

    
    <glyph glyph-name="tixing" unicode="&#58993;" d="M925.007 189.506c-9.007 8.122-23.22 18.37-42.243 30.457-5.865 3.726-9.318 10.111-9.238 17.079l0.032 2.54c0.61 51.781 1.53 130.034-12.192 209.543-16.686 96.68-51.422 172.287-103.242 224.72-40.83 41.315-92.435 68.674-154.065 81.819-3.057 19.095-12.198 36.341-26.517 49.57-17.136 15.828-40.166 24.546-64.847 24.546-24.68 0-47.71-8.719-64.845-24.546-14.315-13.222-23.455-30.464-26.515-49.553-61.343-13.07-112.581-40.223-152.973-81.204-117.15-118.867-114.2-322.051-112.615-431.208l0.086-5.973c0.1-6.964-3.509-13.566-9.417-17.232-19.404-12.038-33.984-22.151-43.335-30.056-24.834-20.994-39.077-51.649-39.077-84.103 0-28.355 23.067-51.422 51.422-51.422h277.24c0.54-65.734 54.174-119.045 120.032-119.045S632.19-11.25 632.73 54.483H908.12c29.375 0 53.272 23.898 53.272 53.272-0.002 31.103-13.262 60.9-36.385 81.751zM512.694 789.764c14.587 0 27.973-4.945 37.694-13.925 4.254-3.93 7.625-8.439 10.07-13.418-15.392 1.55-31.313 2.334-47.763 2.334-16.396 0-32.257-0.776-47.587-2.309 8.211 16.448 25.978 27.318 47.586 27.318z m0.002-814.31c-43.793 0-79.465 35.364-80.005 79.03H592.7c-0.54-43.667-36.213-79.03-80.005-79.03zM908.118 94.5H115.423c-6.29 0-11.407 5.117-11.407 11.406 0 20.653 9.074 40.17 24.896 53.544 7.753 6.553 21.1 15.756 38.6 26.614 17.772 11.026 28.627 30.875 28.33 51.799l-0.086 5.986c-1.5 103.307-4.292 295.6 101.105 402.538 51.24 51.99 123.858 78.352 215.833 78.352 92.149 0 165.147-26.586 216.967-79.022 45.959-46.502 77.004-114.937 92.272-203.399 13.098-75.896 12.204-151.944 11.611-202.266l-0.03-2.542c-0.246-20.923 10.144-40.108 27.789-51.322 16.656-10.584 29.764-19.959 36.906-26.398 14.722-13.277 23.166-32.243 23.166-52.034 0-7.309-5.948-13.256-13.257-13.256zM450.672 682.724c-24.2 0-58.362-22.533-82.263-43.62-19.808-17.478-54.382-53.17-63.362-95.837-2.276-10.812 4.644-21.424 15.457-23.698 1.39-0.293 2.774-0.434 4.14-0.434 9.26 0 17.575 6.467 19.558 15.89 4.824 22.911 23.296 49.91 50.682 74.072 26.59 23.462 49.811 33.61 55.788 33.61 11.049 0 20.008 8.958 20.008 20.008 0 11.05-8.96 20.009-20.008 20.009z"  horiz-adv-x="1024" />

    
    <glyph glyph-name="dianhua2" unicode="&#58906;" d="M659.198685-128L659.181536-128C697.575194-128 732.793082-119.01152 763.879037-101.24608 797.085984-82.281504 822.99095-53.043552 844.926915-19.40496 847.85257-14.141088 848.148422-13.555072 851.095514-8.155424 884.213846 52.452896 847.009318 148.367744 756.414118 219.712512 707.03247 258.5864 652.448387 280.879648 606.622685 280.879648 572.566768 280.879648 545.003888 268.390976 528.31609 245.550304 524.742989 243.212064 518.781632 240.15776 513.890774 240.15776 512.488691 240.15776 509.568755 240.15776 505.198141 245.11008 504.906576 245.405952 504.627875 245.701792 504.343456 246.0248 478.83439 279.104544 455.257658 314.72976 434.220685 351.92288 414.893078 386.118848 397.786512 421.469664 383.365488 457.089152 381.367411 468.344416 382.869542 473.961344 384.152998 475.54064 385.074858 476.674016 387.821856 477.41152 387.843296 477.41152 412.816394 478.003232 435.119677 489.235616 452.867971 509.8824 486.270723 548.75056 500.474506 617.091072 490.844291 692.690688 476.087392 808.599168 412.520541 896 342.973754 896 342.755078 896 341.225795 895.97712 340.991398 895.97712 337.691283 895.899968 334.465491 895.581248 331.299725 895.089568 288.612634 896.981888 249.341424 888.09488 215.206899 868.604352 57.231638 778.345024 53.904371 494.656704 207.624784 222.766784 326.263088 12.95872 507.732182-128 659.198685-128L659.198685-128ZM606.622685 223.2856C639.277946 223.2856 681.949318 205.02992 720.783181 174.462784 788.499114 121.15072 818.380224 51.079392 803.098797 22.421728 800.75913 18.033952 799.118365 15.286976 797.834906 13.064512 782.626371-13.26496 759.864304-37.199008 735.305683-51.23984 713.035274-63.974368 687.426163-70.405952 659.198685-70.405952 529.879677-70.405952 364.819677 61.804416 257.771075 251.122912 124.461632 486.897376 118.052922 746.767392 243.791686 818.598112 269.016333 832.984832 298.773098 839.337792 331.305443 837.395456 333.689414 837.272544 336.083392 837.418336 338.417338 837.864256 339.723664 838.13296 341.058573 838.355904 342.414922 838.405952 376.616621 838.405952 422.55809 772.97392 433.707587 685.39872 441.082461 627.5088 431.46368 573.33776 409.193274 547.421376 398.752678 535.27856 389.892826 535.084192 386.990038 535.005568 384.48887 535.005568 357.517693 534.168032 339.383504 511.77472 325.548467 494.702464 321.523728 471.571648 327.407907 443.071168 327.753782 441.396096 328.251158 439.742496 328.887171 438.140288 344.480173 399.345024 363.054566 360.794144 384.097258 323.566752 407.05513 282.973504 432.881488 244.121056 460.880285 208.084224 462.125155 206.480608 463.515805 205.02992 465.022221 203.745056 478.645731 189.87712 495.455018 182.563712 513.896493 182.563712 543.134442 182.563712 565.823619 201.484 568.313354 203.65072 570.468646 205.5216 572.349526 207.715456 573.867376 210.155168 580.651978 221.018816 595.428883 223.2856 606.622685 223.2856L606.622685 223.2856ZM697.475146 417.254816C711.237293 417.254816 723.458717 427.08656 726.025632 441.100256 730.89505 467.629792 725.12807 494.483776 709.808051 516.70416 694.470883 538.901664 671.412966 553.825792 644.87199 558.682368 629.056026 561.563712 613.943251 551.117376 611.05047 535.328576 608.153402 519.535488 618.609715 504.388416 634.398525 501.507072 645.670934 499.436096 655.462653 493.104576 661.967123 483.670144 668.483024 474.262912 670.922736 462.856128 668.867491 451.573728 665.958989 435.784928 676.415302 420.654976 692.204112 417.752192 693.969222 417.427776 695.744336 417.254816 697.475146 417.254816L697.475146 417.254816ZM795.685331 419.354368C809.44176 419.354368 821.657469 429.157536 824.220096 443.171232 841.884064 539.44336 777.931318 632.115232 681.663472 649.75776 665.9204 652.639136 650.73473 642.1928 647.841949 626.404 644.94488 610.638048 655.401197 595.48528 671.17857 592.605344 735.918826 580.729792 778.930358 518.402112 767.054806 453.667552 764.163456 437.873024 774.61977 422.725952 790.408579 419.846048 792.17369 419.5216 793.943088 419.354368 795.685331 419.354368L795.685331 419.354368ZM908.176477 387.620992C921.932906 387.620992 934.15433 397.424128 936.72696 411.443552 951.410966 491.525248 934.031414 572.528832 887.775514 639.530144 841.538189 706.535744 771.97425 751.518176 691.886819 766.202208 676.130883 769.082112 660.968083 758.641504 658.065299 742.848416 655.1668 727.059616 665.624547 711.935392 681.417642 709.026912 746.213638 697.15136 802.518525 660.744352 839.951734 606.523296 877.369219 552.27936 891.438653 486.724448 879.563104 421.911296 876.67175 406.145344 887.110915 390.998272 902.90544 388.08976 904.676269 387.765344 906.439949 387.620992 908.176477 387.620992L908.176477 387.620992Z"  horiz-adv-x="1024" />

    
    <glyph glyph-name="qiye" unicode="&#58887;" d="M512 896C422.4 896 332.8 870.4 256 827.73504c-21.33504-12.8-25.6-38.4-17.06496-59.73504 12.8-21.33504 38.4-25.6 59.73504-12.8C362.66496 789.33504 435.2 810.66496 512 810.66496c234.66496 0 426.66496-192 426.66496-426.66496s-192-426.66496-426.66496-426.66496-426.66496 192-426.66496 426.66496c0 76.8 21.33504 149.33504 55.46496 213.33504 12.8 21.33504 4.26496 46.93504-12.8 59.73504s-46.93504 4.26496-59.73504-17.06496C25.6 563.2 0 473.6 0 384c0-281.6 230.4-512 512-512s512 230.4 512 512S793.6 896 512 896zM771.07712 131.87072H248.07424v66.85696h89.27744v216.7808h69.37088c10.496 0 15.68768-1.71008 15.68768-5.13536 0-3.4816-0.96768-7.64416-3.02592-12.4928-3.9936-10.04032-5.9904-25.67168-5.9904-46.66368v-152.48384h77.184V479.28832h70.62528c11.2384 0 16.77312-1.7664 16.77312-5.41696 0-3.65056-0.79872-7.53152-2.33984-11.58144-3.9936-10.15296-5.9904-25.9584-5.9904-47.40608v-46.15168h154.99776v-64.86016h-154.99776v-105.1392h201.43104v-66.86208zM749.45536 397.88032c-103.82336 48.2048-181.80608 111.18592-234.12224 188.93824-50.30912-72.10496-130.51904-135.42912-240.73216-190.13632-22.13376 27.9552-40.96 48.37376-56.64768 61.32736 133.08928 46.60736 220.76928 124.93312 262.98368 235.08992 55.50592-14.20288 84.88448-22.07744 88.13568-23.7312 3.2512-1.59744 4.79232-3.82464 4.79232-6.67648 0-3.65056-2.10944-6.90176-6.61504-9.69728-4.44928-2.85184-7.93088-5.4784-10.27072-7.93088 24.4736-40.04864 58.41408-74.96192 102.00064-104.79616 43.4688-29.7216 92.35968-51.28704 147.06688-64.63488-16.94208-19.05152-35.76832-44.94848-56.59136-77.75232z"  horiz-adv-x="1024" />

    
    <glyph glyph-name="paixu" unicode="&#59098;" d="M280.774194 202.322581H115.612903l165.161291-330.322581h66.064516V896H280.774194v-693.677419zM743.225806 896h-66.064516v-1024h66.064516V598.709677h165.161291l-165.161291 297.290323z"  horiz-adv-x="1024" />

    
    <glyph glyph-name="shanchu4" unicode="&#58947;" d="M283.023 539.406c-9.357 0-16.973-7.617-16.973-16.938v-366.084c0-36.268 29.449-65.717 65.717-65.717h341.35c36.268 0 65.717 29.449 65.717 65.717V521.453c0 9.32-7.617 16.938-16.973 16.938-9.357 0-16.975-7.617-16.975-16.938v-365.068c0-17.48-14.217-31.77-31.77-31.77h-341.35c-17.48 0-31.77 14.289-31.77 31.77V522.469c0.002 9.32-7.615 16.937-16.973 16.937z m292.461-0.345c-9.355 0-16.973-7.67-16.973-17.027v-268.125c0-9.32 7.617-16.938 16.973-16.938 9.357 0 16.975 7.617 16.975 16.938V522.033c0 9.358-7.617 17.028-16.975 17.028z m-146.23 0c-9.357 0-16.973-7.67-16.973-17.027v-268.125c0-9.32 7.615-16.938 16.973-16.938s16.975 7.617 16.975 16.938V522.033c0 9.358-7.618 17.028-16.975 17.028z m-243.789 97.468c-9.357 0-16.973-7.561-16.973-16.9 0-9.41 7.615-17.045 16.973-17.045h633.811c9.357 0 16.973 7.635 16.973 17.045 0 9.34-7.615 16.9-16.973 16.9H690.018v56.18c0 36.23-29.232 65.734-65.209 65.734H380.512c-36.268 0-65.717-29.504-65.717-65.734v-56.18h-129.33z m470.607 0H348.74v56.18c0 17.518 14.289 31.734 31.771 31.734h244.297c17.553 0 31.264-13.963 31.264-31.734v-56.18z"  horiz-adv-x="1024" />

    
    <glyph glyph-name="gongshangxinxi" unicode="&#58969;" d="M320 512h128v-192h-128v-64h384v64h-128V512h128V576h-384V512zM537.6512 896H486.3488C373.6064 816.5888 226.048 768 64 768v-288C64 199.68 253.952-57.7024 512-128c258.048 70.2976 448 327.68 448 608V768c-162.048 0-309.6064 48.5888-422.3488 128z m294.3488-446.8224c0-214.8864-135.68-395.264-320-449.1776-184.32 53.9136-320 234.2912-320 449.1776V669.9008c115.7632 0 221.1328 37.2224 301.6704 98.0992h36.6592c80.5376-60.8768 185.9072-98.0992 301.6704-98.0992v-220.7232z"  horiz-adv-x="1024" />

    
    <glyph glyph-name="dianhua3" unicode="&#58901;" d="M848.4 798.3h-670c-44.2 0-80-35.8-80-80v-670c0-44.2 35.8-80 80-80h670c44.2 0 80 35.8 80 80v670c0 44.2-35.8 80-80 80zM402 271.9c-56.3 56.4-101.9 124.4-128.3 191.5-5.4 13.7-14.9 40.5-18.7 66.5-3.4 23.3-1.3 40.8 5.7 48l69.2 60.2c0.3 0.3 0.7 0.6 1 0.9 2.9 2.7 7.1 4.2 11.8 4.2 0.7 0 1.3 0 2-0.1 5.5-0.5 10.9-2.9 14.6-6.5l67.9-85.7c0.5-0.6 1-1.2 1.6-1.8 6.7-7.2 6.6-18.7-0.2-25.7L394 500.6c-10.4-6.9-15.4-19.5-12.6-31.7 3.6-15.8 20.5-53.1 92.5-125.1s109.3-88.9 125.1-92.5c2.2-0.5 4.5-0.8 6.7-0.8 9.9 0 19.3 4.9 25 13.4l22.9 34.4c3.5 3.3 8.1 5.2 13 5.2 4.8 0 9.3-1.8 12.8-5 0.6-0.5 1.2-1.1 1.8-1.6l85.7-67.9c7.8-8 8.9-21.4 2.3-28.4-0.3-0.3-0.6-0.7-0.9-1l-60.2-69.2c-4.8-4.7-14.8-7.3-28-7.3-22.2 0-53.7 7.4-86.5 20.3-39 15.5-115.6 52.5-191.6 128.5z"  horiz-adv-x="1024" />

    
    <glyph glyph-name="huikuanjihuaxianxingffffff" unicode="&#59027;" d="M702.161455 471.761455c-145.431273 0-263.307636-117.899636-263.307637-263.307637 0-145.431273 117.899636-263.307636 263.307637-263.307636 145.431273 0 263.307636 117.899636 263.307636 263.307636 0.023273 145.431273-117.876364 263.307636-263.307636 263.307637z m0-468.107637a204.8 204.8 0 1 0 0 409.6 204.8 204.8 0 0 0 0-409.6z m-277.92291 0H146.292364a29.253818 29.253818 0 0 0-29.253819 29.253818V764.346182c0 16.151273 13.102545 29.253818 29.253819 29.253818h614.4c16.151273 0 29.253818-13.102545 29.253818-29.253818v-234.053818a29.253818 29.253818 0 0 1 58.507636 0V764.346182a87.761455 87.761455 0 0 1-87.761454 87.761454h-614.4a87.738182 87.738182 0 0 1-87.761455-87.761454v-731.438546a87.761455 87.761455 0 0 1 87.761455-87.761454h277.946181a29.253818 29.253818 0 0 1 0 58.507636z m-73.029818 234.263273V384h102.260364a14.638545 14.638545 0 0 1 14.638545 14.638545v14.638546a14.638545 14.638545 0 0 1-14.638545 14.638545h-102.260364v58.298182h-43.985454v-58.298182H204.8a14.638545 14.638545 0 0 1-14.638545-14.638545v-14.638546c0-8.098909 6.562909-14.638545 14.638545-14.638545h102.446545v-146.082909h43.962182z m116.898909 277.736727a14.638545 14.638545 0 0 1-14.638545 14.638546h-82.245818l82.129454 131.770181h-60.299636l-63.883636-102.516363-64.069819 102.516363H204.637091l82.362182-131.770181H204.8a14.638545 14.638545 0 0 1-14.638545-14.638546v-14.638545c0-8.075636 6.539636-14.638545 14.638545-14.638546h248.692364a14.638545 14.638545 0 0 1 14.638545 14.638546v14.638545z m343.784728-307.2H716.8v109.707637a21.946182 21.946182 0 1 1-43.892364 0v-131.653819c0-12.125091 9.821091-21.946182 21.946182-21.946181h117.038546a21.946182 21.946182 0 1 1 0 43.892363z"  horiz-adv-x="1024" />

    
    <glyph glyph-name="qiye1" unicode="&#58978;" d="M188.58496 762.02496h457.38496v-757.76H188.58496zM440.4992 634.24h145.1264V582.912H440.4992V634.24zM440.4992 454.272h145.1264v-52.3776H440.4992v52.3776zM744.81152 277.7344h46.40768V132.608h-46.40768v145.1264zM744.81152 473.1392h46.40768v-145.13152h-46.40768V473.1392zM245.0944 277.7344h145.152v-51.32288H245.0944v51.32288zM910.976 17.8688V634.24H682.2912V798.464H146.3552v-780.5952H50.7136v-48.44032h924.672v48.44032h-64.4096z m-49.5104 570.0096v-570.0096H682.2912V587.8784h179.1744z m-225.536 162.1504v-732.16H195.84v732.16h440.0896zM245.0944 454.272h145.152v-52.3776H245.0944v52.3776zM440.4992 277.7344h145.1264v-51.32288H440.4992v51.32288zM245.0944 634.24h145.152V582.912H245.0944V634.24z"  horiz-adv-x="1024" />

    
    <glyph glyph-name="shanchu3" unicode="&#58896;" d="M512 896Q372.992 896 255.008 827.488T68.512 640.992 0 384t68.512-256.992 186.496-186.496T512-128t256.992 68.512 186.496 186.496T1024 384t-68.512 256.992T768.992 827.488 512 896z m311.008-823.008q-60.992-60.992-140-94.016Q602.016-56.032 512-56.032t-171.008 34.016q-79.008 34.016-140 95.008t-94.016 140Q71.968 293.984 71.968 384t34.016 171.008q34.016 79.008 95.008 140t140 94.016Q421.984 824.032 512 824.032t171.008-34.016q79.008-34.016 140-95.008t94.016-140Q952.032 474.016 952.032 384t-34.016-171.008q-34.016-79.008-95.008-140zM796 348H228q-15.008 0-25.504 10.496T192 384t10.496 25.504T228 420h568q15.008 0 25.504-10.496T832 384t-10.496-25.504T796 348z"  horiz-adv-x="1024" />

    
    <glyph glyph-name="hierarchy" unicode="&#58884;" d="M976.882-61.844h-201.777c-22.288 0-40.356 18.067-40.356 40.356v201.777c0 22.288 18.067 40.356 40.356 40.356h80.71v161.421h-322.844v-161.421h80.71c22.288 0 40.356-18.067 40.356-40.356v-201.777c0-22.288-18.067-40.356-40.356-40.356h-201.777c-22.288 0-40.356 18.067-40.356 40.356v201.777c0 22.288 18.067 40.356 40.356 40.356h80.71v161.421h-322.843v-161.421h80.71c22.288 0 40.356-18.067 40.356-40.356v-201.777c0-22.288-18.067-40.356-40.356-40.356h-201.777c-22.288 0-40.356 18.067-40.356 40.356v201.777c0 22.288 18.067 40.356 40.356 40.356h80.71v161.423c0 22.287 18.067 40.353 40.356 40.353h322.844v121.067h-80.71c-22.288 0-40.356 18.067-40.356 40.356v201.777c0 22.288 18.067 40.356 40.356 40.356h201.777c22.288 0 40.356-18.067 40.356-40.356v-201.777c0-22.288-18.067-40.356-40.356-40.356h-80.71v-121.067h322.844c22.287 0 40.356-18.067 40.356-40.353v-161.423h80.71c22.288 0 40.356-18.067 40.356-40.356v-201.777c0-22.288-18.067-40.355-40.355-40.355zM48.708 180.288v-201.777h201.777v201.777h-201.777zM613.683 583.841v201.777h-201.777v-201.777h201.777zM411.907 180.288v-201.777h201.777v201.777h-201.777zM976.882 180.288h-201.777v-201.777h201.777v201.777z"  horiz-adv-x="1024" />

    
    <glyph glyph-name="shoujitongxunlu" unicode="&#58965;" d="M41.949091 579.525818H177.477818a23.668364 23.668364 0 0 1 0 47.348364H41.949091a23.668364 23.668364 0 0 1 0-47.348364zM177.477818 407.028364H41.949091a23.668364 23.668364 0 0 1 0-47.336728H177.477818a23.668364 23.668364 0 0 1 0 47.336728z m0-219.019637H41.949091a23.656727 23.656727 0 1 1 0-47.325091H177.477818a23.656727 23.656727 0 1 1 0 47.325091zM900.235636 896H196.910545a105.483636 105.483636 0 0 1-105.472-105.483636v-77.486546h48.069819v65.047273c0 45.323636 24.994909 70.318545 70.318545 70.318545h678.621091c45.323636 0 70.318545-24.994909 70.318545-70.318545V-11.287273c0-45.323636-24.994909-70.330182-70.318545-70.330182h-678.632727c-45.323636 0-70.318545 25.006545-70.318546 70.330182v65.035637H91.426909v-76.264728A105.483636 105.483636 0 0 1 196.898909-128h703.325091c58.251636 0 105.495273 47.232 105.495273 105.483636V790.516364C1005.730909 848.768 958.475636 896 900.235636 896z m-253.556363-631.842909c61.277091 34.432 103.028364 99.409455 103.028363 174.708364C749.707636 549.946182 659.665455 640 548.573091 640s-201.146182-90.053818-201.146182-201.134545c0-75.450182 41.937455-140.544 103.435636-174.906182-59.252364-25.576727-118.260364-73.588364-142.871272-133.341091h51.118545c32.733091 61.672727 108.229818 104.331636 182.237091 107.089454l7.226182 0.011637 8.133818-0.011637c73.995636-2.769455 149.504-45.416727 182.225455-107.089454h51.095272c-24.680727 59.915636-83.863273 108.032-143.348363 133.538909zM393.949091 438.865455c0 85.376 69.236364 154.600727 154.624 154.600727 85.410909 0 154.612364-69.224727 154.612364-154.600727 0-85.399273-69.201455-154.612364-154.612364-154.612364-85.387636 0-154.624 69.213091-154.624 154.612364z"  horiz-adv-x="1024" />

    
    <glyph glyph-name="paixu1" unicode="&#58894;" d="M352 448l320 0-160 192L352 448zM672 320L352 320l160-192L672 320z"  horiz-adv-x="1024" />

    
    <glyph glyph-name="shanchu-" unicode="&#58890;" d="M983.71072 583.31648c-25.78944 60.96896-62.69952 115.71712-109.71136 162.72896S772.24448 829.96736 711.2704 855.75168C648.13056 882.4576 581.07904 896 512.02048 896 442.92096 896 375.86944 882.4576 312.72448 855.75168c-60.96896-25.78944-115.71712-62.69952-162.72896-109.71136-47.00672-47.00672-83.92192-101.75488-109.70624-162.72384C13.58336 520.17664 0.04096 453.12 0.04096 383.98976c0-69.09952 13.5424-136.16128 40.24832-199.30112 25.78944-60.96896 62.70464-115.72224 109.70624-162.72896 47.01184-47.01184 101.76-83.92192 162.72896-109.71136 63.14496-26.71104 130.19648-40.2432 199.296-40.2432 69.05856 0 136.10496 13.53728 199.25504 40.2432 60.96384 25.78944 115.712 62.69952 162.71872 109.71136s83.92192 101.76 109.71136 162.72896c26.71104 63.13984 40.24832 130.2016 40.24832 199.30112 0 69.13024-13.53216 136.18176-40.2432 199.32672z m-260.27008-415.96416l-0.02048-0.03072a36.43392 36.43392 0 0 0-51.49696-0.02048l-164.35712 164.0448-164.04992-164.35712-0.0256-0.03072a36.43392 36.43392 0 0 0-51.49184-0.0256 36.43392 36.43392 0 0 0-0.07168 51.5328l164.0448 164.36224-164.34688 164.04992a36.41856 36.41856 0 1 0 51.45088 51.54304l164.35712-164.04992 164.04992 164.36224 0.02048 0.0256a36.44928 36.44928 0 0 0 51.56864-51.51744l-164.05504-164.35712 164.37248-164.04992a36.41856 36.41856 0 0 0 0.0512-51.4816z"  horiz-adv-x="1024" />

    
    <glyph glyph-name="yichang" unicode="&#58946;" d="M588.8 758.272c-25.6 32.256-38.4 57.344-76.8 57.344S454.144 783.36 435.2 758.272L26.624 68.096c-18.944-25.6-32.256-57.344-18.944-89.6 6.144-25.6 32.256-38.4 70.656-38.4H947.2c51.2 0 70.656 25.6 70.656 38.4 12.8 32.256 0 63.488-18.944 89.6L588.8 758.272z m-115.2-230.4c0 25.6 25.6 51.2 51.2 51.2s51.2-18.944 51.2-51.2V291.84c0-25.6-25.6-51.2-51.2-51.2s-51.2 25.6-51.2 51.2V527.872m50.688-453.12c-25.6 0-51.2 25.6-51.2 51.2s25.6 51.2 51.2 51.2 51.2-25.6 51.2-51.2c0-31.744-25.088-51.2-51.2-51.2z"  horiz-adv-x="1024" />

    
    <glyph glyph-name="yulan" unicode="&#58976;" d="M1013.472 761.44A134.72 134.72 0 0 1 878.912 896H145.088a134.72 134.72 0 0 1-134.56-134.56v-753.184a134.72 134.72 0 0 1 134.56-134.56h625.92a36.8 36.8 0 0 1 0 73.6h-625.92a61.056 61.056 0 0 0-60.992 60.992V761.44c0 33.632 27.36 60.992 60.992 60.992h733.824c33.632 0 60.992-27.36 60.992-60.992v-642.112a36.8 36.8 0 0 1 73.568 0V761.44zM738.816 215.456a292.8 292.8 0 0 1 63.52 182.912 293.088 293.088 0 0 1-86.4 208.608 293.12 293.12 0 0 1-208.608 86.4 293.088 293.088 0 0 1-208.608-86.4 293.12 293.12 0 0 1-86.4-208.608c0-78.816 30.688-152.896 86.4-208.608a293.12 293.12 0 0 1 208.608-86.4A292.96 292.96 0 0 1 686.4 163.872l198.016-198.016a36.736 36.736 0 0 1 52.032 0 36.8 36.8 0 0 1 0 52.032L738.816 215.456z m-452.96 182.912c0 122.112 99.328 221.472 221.44 221.472s221.472-99.36 221.472-221.472c0-122.112-99.36-221.472-221.472-221.472s-221.44 99.36-221.44 221.472z"  horiz-adv-x="1024" />

    
    <glyph glyph-name="tianjiafujian" unicode="&#59026;" d="M447.205 135.297c-40.471-55.687-117.727-69.416-174.908-31.081-54.93 36.984-69.478 111.497-32.494 166.427a119.462 119.462 0 0 0 2.699 3.842c2.572 3.521 3.855 5.589 6.035 8.386l338.466 469.55a31.41 31.41 0 0 0 7.714 7.213c70.508 79.832 189.159 95.281 277.76 36.165 87.099-58.84 113.418-175.273 60.092-265.853a30.507 30.507 0 0 0-4.306-9.56L601.871 67.607l-6.035-8.441c-94.493-129.822-274.676-161.783-408.059-72.388C59.64 72.851 25.543 246.501 111.612 374.634a275.264 275.264 0 0 0 6.571 9.362c2.682 3.968 3.913 5.588 6.035 8.386l278.04 385.702c10.123 13.906 29.42 17.335 43.712 7.769 13.753-9.256 17.4-27.908 8.144-41.661-0.212-0.317-0.43-0.628-0.655-0.935l-278.04-385.702-6.035-8.386c-71.671-98.01-50.324-235.563 47.686-307.234a220.294 220.294 0 0 1 6.984-4.903c104.813-70.32 246.471-45.182 320.691 56.905 2.405 3.187 3.913 5.589 6.035 8.386l320.356 444.562c45.612 62.258 32.119 149.706-30.14 195.321a145.115 145.115 0 0 1-4.684 3.286c-66.69 44.739-156.819 28.737-204.031-36.223L299.795 247.937c-2.126-2.961-4.753-6.54-5.981-8.386-19.549-26.663-13.784-64.128 12.879-83.681 0.655-0.478 1.317-0.945 1.989-1.395 28.577-19.212 67.233-12.371 87.482 15.483l51.041-34.661z m-51.204 34.77L640.95 509.873c10.106 13.93 29.427 17.366 43.712 7.769 13.722-9.249 17.349-27.871 8.1-41.59-0.215-0.321-0.437-0.638-0.665-0.948L447.205 135.297l-51.204 34.77"  horiz-adv-x="1024" />

    
    <glyph glyph-name="weitongguo" unicode="&#59004;" d="M793.596693 101.952C662.226027-29.418667 460.274027-52.970667 302.482027 44.629333l-6.186667 3.850667 29.056 16.885333 2.208-1.269333c144.256-83.370667 327.392-59.242667 445.312 58.72 69.738667 69.696 108.096 162.293333 108.032 260.714667v2.528l29.034667 16.832 0.202666-7.338667c3.157333-110.997333-38.229333-215.285333-116.544-293.6zM1010.59936 476.757333a47.413333 47.413333 0 0 0-9.482667-7.285333L193.148693 2.954667a45.429333 45.429333 0 0 0-34.730666-4.544 45.696 45.696 0 0 0-27.84 21.322666L6.162027 235.2a45.845333 45.845333 0 0 0 7.317333 55.306667c2.816 2.837333 6.005333 5.290667 9.461333 7.296l807.978667 466.506666a45.312 45.312 0 0 0 34.784 4.608 45.376 45.376 0 0 0 27.808-21.397333l124.416-215.434667a45.898667 45.898667 0 0 0-7.328-55.328zM41.22336 273.322667a26.784 26.784 0 0 1-4.277333-32.288l114.026666-197.504c3.541333-6.154667 9.312-10.538667 16.224-12.416a26.528 26.528 0 0 1 20.256 2.645333l790.005334 456a26.794667 26.794667 0 0 1 9.813333 36.501333l-114.026667 197.504a26.933333 26.933333 0 0 1-16.437333 12.554667 26.058667 26.058667 0 0 1-19.957333-2.709333L46.716693 277.514667a27.125333 27.125333 0 0 1-5.493333-4.192z m657.237333-76.085334c-64.970667-64.938667-160.725333-91.498667-249.973333-69.376l-10.485333 2.602667 37.973333 21.952 1.504-0.224c73.109333-10.922667 147.925333 13.696 200.117333 65.909333a232.778667 232.778667 0 0 1 52.309334 79.765334l0.533333 1.418666 38.069333 21.856-2.986666-10.410666a265.546667 265.546667 0 0 0-67.061334-113.493334z m0.245334 504.693334l-2.186667 1.258666c-144.266667 83.381333-327.381333 59.242667-445.333333-58.698666-69.642667-69.653333-108.021333-162.250667-108.010667-260.736l-0.010667-2.506667-29.034666-16.842667-0.213334 7.328c-3.157333 110.997333 38.229333 215.274667 116.565334 293.610667C361.852693 796.714667 563.804693 820.266667 721.57536 722.656l6.197333-3.850667-29.066666-16.874666z m-150.517334-87.136l-1.514666 0.224c-74.218667 11.104-147.157333-12.928-200.128-65.898667A234.154667 234.154667 0 0 1 294.11936 469.333333l-0.565333-1.408-37.92-21.866666 2.997333 10.410666a265.152 265.152 0 0 0 67.072 113.504c64.949333 64.949333 160.725333 91.52 249.952 69.376l10.485333-2.613333-37.952-21.941333zM426.716693 224.469333c-39.722667-2.581333-75.946667 2.581333-107.936 15.36l43.146667-74.101333-22.837333-13.269333-43.445334 74.634666c-5.802667-34.282667-18.645333-69.301333-38.218666-104.202666l-1.973334-3.477334-3.648 1.653334a208.266667 208.266667 0 0 1-17.834666 6.816l-5.237334 1.770666 2.944 4.682667c22.229333 35.445333 36.629333 70.858667 42.858667 105.397333l-76.746667-44.693333-12.832 22.069333 86.997334 50.656-17.045334 29.269334-75.434666-43.914667-12.864 22.016 75.456 43.968-19.509334 33.493333 22.837334 13.28 19.509333-33.504 76.213333 44.384 12.853334-22.026666-76.224-44.394667 17.056-29.301333 86.997333 50.677333 12.832-22.069333-77.525333-45.12c34.250667-12.789333 71.605333-16.32 111.210666-10.496l5.92 0.864-0.970666-5.898667c-1.066667-6.464-1.877333-13.290667-2.464-20.522667l-0.309334-3.744-3.776-0.256zM595.452693 307.765333l-47.445333-26.048c-21.589333-12.234667-41.525333-14.474667-59.285333-6.666666-2.037333-8.021333-4.288-19.552-6.698667-34.357334l-1.088-6.709333-25.792 17.077333 0.874667 3.082667c4.682667 16.629333 8.213333 28.928 10.56 36.842667l-35.242667 60.533333-23.317333-13.589333-12.832 22.069333 45.973333 26.741333 50.314667-86.421333a40.341333 40.341333 0 0 1 25.344-3.701333l-68.629334 117.856 35.146667 20.469333c-6.826667-0.448-26.432-1.952-26.432-1.952l3.008 16.490667-27.114667-15.786667-11.701333 20.117333 125.301333 72.938667 11.189334-19.189333-29.909334-47.232h0.213334l43.850666 26.08 53.770667-92.330667c10.026667-17.248 4.736-28.288-1.504-34.517333a36.48 36.48 0 0 0-7.658667-5.76c-6.848-4-14.421333-8.138667-22.677333-12.416l-3.232-1.674667-2.229333 2.901333a152.416 152.416 0 0 1-5.12 6.24l4.224-7.274666-21.472-12.48-17.792 30.538666-29.269334-17.034666 19.509334-33.472-21.397334-12.501334c6.869333 1.184 14.058667 3.936 21.674667 8.32l49.248 27.648 69.525333 42.730667 1.248-6.122667c1.077333-5.152 2.261333-11.413333 3.573334-18.773333l0.522666-2.965333-67.232-39.701334z m-17.248 54.848c8.586667 3.786667 15.786667 7.392 21.514667 10.730667 1.205333 0.672 2.154667 1.408 2.901333 2.154667 1.610667 1.621333 2.784 3.754667 0.181334 8.224l-3.381334 5.834666-29.898666-17.408 6.197333-10.634666 2.485333 1.098666z m9.493334 47.029334l-7.008 12.032-29.877334-17.418667 7.008-12.021333 29.877334 17.408z m-51.328-29.877334l-7.008 12.021334-29.28-17.066667 6.997333-12.021333 29.290667 17.066666z m32.64 62.016l-7.018667 12.021334-29.877333-17.386667 7.008-12.032 29.888 17.397333z m-51.349334-29.888l-6.997333 12.032-29.290667-17.066666 7.008-12.021334 29.28 17.056z m-18.176 46.816l13.674667 21.749334-40.586667-23.626667a2283.946667 2283.946667 0 0 0 26.912 1.877333z m-75.146666-64.085333c-20.064 10.336-36.245333 18.122667-48.096 23.114667l-4.245334 1.781333 11.370667 23.424 3.722667-1.386667c11.573333-4.298667 28.16-11.424 49.290666-21.173333l3.978667-1.813333-11.946667-26.026667-4.074666 2.08zM822.418027 441.76l-50.976-28.106667c-22.005333-12.490667-42.826667-15.36-61.973334-8.501333-1.450667-5.226667-3.594667-14.922667-6.762666-32.874667l-1.130667-6.538666-26.133333 17.098666 0.970666 3.136a1105.386667 1105.386667 0 0 0 10.986667 33.738667l-35.957333 61.781333-22.741334-13.226666-12.608 21.674666 45.365334 26.4 50.848-87.328c14.677333-4.874667 30.890667-2.432 48.245333 7.285334l53.28 29.717333 64.010667 40.16 0.864-6.794667c0.810667-6.453333 1.717333-12.778667 2.730666-18.986666l0.48-2.912-59.498666-35.722667z m-4.202667 36.362667a44.138667 44.138667 0 0 0-9.098667-6.869334c-8.522667-4.96-33.28-19.061333-33.28-19.061333l-2.325333 3.018667a277.482667 277.482667 0 0 1-12.992 15.690666l-3.872 4.416 5.344 2.453334a338.933333 338.933333 0 0 1 29.717333 15.242666c1.184 0.682667 2.197333 1.429333 2.965334 2.218667 1.290667 1.290667 4.298667 4.32-0.554667 12.426667l-42.464 72.885333-84.064-48.949333-12.682667 21.877333 84.064 48.938667-21.792 37.408 23.424 13.664 21.813334-37.429334 33.685333 19.616 12.704-21.866666-33.706667-19.616 45.173334-77.536c11.093333-19.072 5.002667-31.477333-2.058667-38.528z m-72.714667 10.826666a828.672 828.672 0 0 1-56.533333 25.824l-4.138667 1.685334 10.314667 23.776 3.904-1.568c24.864-9.888 44.192-17.845333 57.888-23.925334l3.936-1.76-11.253333-26.08-4.117334 2.048z m-104.746666 36.128a676.16 676.16 0 0 1-47.530667 22.122667l-4.181333 1.717333 10.325333 22.997334 3.776-1.290667c14.389333-4.885333 31.168-11.669333 49.834667-20.149333l4.298666-1.973334-2.282666-4.117333a152.458667 152.458667 0 0 1-8.192-17.034667l-1.792-4.437333-4.256 2.165333z"  horiz-adv-x="1024" />

    
    <glyph glyph-name="--" unicode="&#58892;" d="M512 896c-282.84 0-512-229.214-512-512s229.16-512 512-512c282.77 0 512 229.23 512 512 0 282.77-229.23 512-512 512zM774.575 499.496l-345.681-446.787-230.4 224.687 132.527 155.594 112.317-178.607 331.237 460.962v-215.848z"  horiz-adv-x="1024" />

    
    <glyph glyph-name="dianhua4" unicode="&#58885;" d="M337.5872 689.36192h-21.01248c-35.4048 0-64.16896-12.97408-87.74144-33.51552 19.47648 11.95008 41.98912 19.00544 68.11136 19.00544h405.44256c69.44256 0 110.43328-49.95584 135.80288-109.08672 10.73152-25.02144 10.2656-48.49152-1.32096-66.05824-1.5104-2.29888-3.22048-4.45952-5.08416-6.51776 10.48576 5.1712 18.93376 12.2624 24.71424 21.02784 11.58656 17.58208 12.05248 41.04192 1.32096 66.05824-25.3696 59.13088-66.36032 109.09184-135.80288 109.09184H491.19232a15.36 15.36 0 0 0-15.36 15.36c0 0.29184 0.07168 0.5632 0.08192 0.84992h-26.61888c0.02048-0.28672 0.08704-0.55808 0.08704-0.84992a15.32416 15.32416 0 0 0-14.72-15.29344v-0.06656H376.84224a15.36 15.36 0 0 0-15.36 15.36c0 0.29184 0.07168 0.5632 0.08704 0.84992h-8.704c0.01536-0.28672 0.08704-0.55808 0.08704-0.84992a15.37024 15.37024 0 0 0-15.36512-15.36512zM778.88 430.32576c-33.92 32.64-54.44608 72.4736-69.0432 98.56512-39.7568 71.04-98.42176 113.0496-192.5632 113.0496-91.02848 0-149.23776-39.21408-196.38272-115.84-22.97344-37.34016-30.58176-51.00544-64.5632-86.10304-0.24064-0.22016-0.4608-0.4608-0.68608-0.71168l-0.60928-0.62976 0.0512-0.0512a15.20128 15.20128 0 0 1-3.5584-9.71776 15.36 15.36 0 0 1 15.36-15.36c4.38272 0 8.31488 1.85856 11.1104 4.80256l0.02048-0.02048c20.48 20.48 53.2736 64.54784 70.57408 94.50496 32.21504 55.76192 95.57504 98.4064 168.68352 98.4064 78.78656 0 136.95488-41.088 164.43392-94.72 11.59168-22.62016 52.16256-84.98688 88.42752-119.54688 48.64-43.93984 57.20064-97.2288 57.20064-129.28v-0.34816c0-121.40032-98.76992-220.16-220.17024-220.16H418.8416c-121.3952 0-220.16 98.75968-220.16 220.16v0.34816c0 31.40096 8.46336 69.13024 42.10176 105.14944 0.55808 0.52224 1.05472 1.08032 1.53088 1.66912 0.18432 0.18944 0.34304 0.37888 0.53248 0.57856l-0.03072 0.03072a15.19104 15.19104 0 0 1 2.95424 8.97536c0 8.47872-6.87616 15.488-15.36 15.36-5.12-0.08192-9.60512-3.44064-9.69216-3.52768a21.23776 21.23776 0 0 1-3.67104-3.67104c-33.0496-39.04-49.08032-93.96736-49.08032-124.5696v-0.34816c0-138.3424 112.54272-250.88 250.88-250.88h188.31872c138.3424 0 250.89024 112.5376 250.89024 250.88v0.34816c4.23424 94.73024-58.17344 138.40896-79.17568 162.65728zM827.33056 267.33056v0.34816c0 32.0512-8.56064 85.34016-57.20064 129.28-36.25984 34.56-76.83584 96.92672-88.42752 119.54688-27.47904 53.632-85.65248 94.72-164.43392 94.72-57.61024 0-109.09696-26.54208-144.128-65.0496 34.05312 30.5152 79.5392 50.53952 129.6128 50.53952 78.78656 0 136.95488-41.09824 164.43392-94.72512 11.59168-22.61504 52.16256-84.97664 88.42752-119.53664 48.64-43.94496 57.20064-97.2288 57.20064-129.28512v-0.34816c0-57.02144-21.80096-109.04064-57.49248-148.18816 44.2112 40.27904 72.00768 98.29888 72.00768 162.69824zM334.07488 498.29376c-14.46912-25.04704-39.7568-59.92448-59.62752-82.66752a15.5136 15.5136 0 0 1 3.54816 2.69824l0.02048-0.02048c20.48 20.48 53.2736 64.54784 70.57408 94.50496 6.82496 11.82208 15.13472 22.99904 24.5504 33.36192-15.66208-14.04928-28.91776-30.30016-39.0656-47.87712zM517.16608 480.70656c-103.57248 0-187.53536-83.968-187.53536-187.53536 0-103.57248 83.96288-187.54048 187.53536-187.54048s187.53536 83.968 187.53536 187.54048c0 103.56736-83.96288 187.53536-187.53536 187.53536z m0-346.94656c-88.03328 0-159.40608 71.37792-159.40608 159.4112 0 88.0384 71.36768 159.40608 159.40608 159.40608s159.40608-71.36768 159.40608-159.40608c0-88.03328-71.3728-159.4112-159.40608-159.4112zM676.57216 293.1712c0 88.0384-71.36768 159.40608-159.40608 159.40608-47.40608 0-89.94816-20.72064-119.14752-53.56032 28.15488 25.03168 65.21344 40.2688 105.856 40.2688 88.04352 0 159.40608-71.36768 159.40608-159.40608a158.80704 158.80704 0 0 0-40.25344-105.85088c32.83456 29.19936 53.54496 71.74144 53.54496 119.1424zM476.73344 358.59968a15.8208 15.8208 0 0 0-15.8208-15.8208h-33.40288a15.8208 15.8208 0 0 0 0 31.6416h33.40288a15.8208 15.8208 0 0 0 15.8208-15.8208zM454.46656 270.68928a15.8208 15.8208 0 0 0-15.8208-15.8208h-33.40288a15.8208 15.8208 0 0 0 0 31.6416h33.40288a15.8208 15.8208 0 0 0 15.8208-15.8208zM633.79968 270.68928a15.8208 15.8208 0 0 0-15.82592-15.8208h-33.40288a15.8208 15.8208 0 0 0 0 31.6416h33.40288a15.8208 15.8208 0 0 0 15.82592-15.8208zM471.15776 325.50912c-8.448 0-11.43296-5.68832-6.63552-12.64128 0 0 17.72544-25.68192 46.0032-25.68192 28.2624 0 45.98272 25.68192 45.98272 25.68192 4.80256 6.94784 1.81248 12.64128-6.63552 12.64128H471.15776zM543.04768 302.34112c0-8.73984-20.37248-15.83104-29.11232-15.83104h-6.83008c-8.73984 0-29.11232 7.0912-29.11232 15.83104a15.8208 15.8208 0 0 0 15.8208 15.8208h33.408a15.8208 15.8208 0 0 0 15.82592-15.8208zM617.97376 358.59968a15.8208 15.8208 0 0 0-15.82592-15.8208h-33.40288a15.8208 15.8208 0 0 0 0 31.6416h33.40288a15.8208 15.8208 0 0 0 15.82592-15.8208zM376.84224 689.36192h57.81504v0.06656c8.18176 0.34304 14.72 7.03488 14.72 15.29344s-6.53824 14.9504-14.72 15.29344v0.06656H376.84224a15.36 15.36 0 0 1 0-30.72zM303.70304 483.29728H240.0256c-32.04608 0-57.14944 10.77248-68.864 29.57312-10.91072 17.5104-10.0352 41.1904 2.46784 66.69312C202.80832 639.0784 246.83008 689.3568 316.57472 689.3568h21.01248a15.36 15.36 0 1 1 0 30.72h-21.01248c-81.50528 0-136.19712-56.96512-170.53184-126.99136-17.34144-35.3792-17.68448-69.63712-0.95232-96.46592 17.44896-27.99616 52.04992-44.04736 94.93504-44.04736h63.67744v30.72512zM886.05184 592.37888c-30.208 70.41536-82.2272 127.69792-164.03456 127.69792H491.19232a15.36 15.36 0 1 1 0-30.72h230.82496c69.44256 0 110.43328-49.95584 135.80288-109.09184 10.73152-25.01632 10.2656-48.47616-1.32096-66.05824-12.94848-19.65056-39.19872-30.91456-72.00768-30.91456H728.32v-30.72h56.17152c43.33056 0 78.91968 16.30208 97.65888 44.7232 17.45408 26.496 18.8416 60.26752 3.90144 95.08352z"  horiz-adv-x="1024" />

    
    <glyph glyph-name="yuyin" unicode="&#58992;" d="M512.889 211.146c85.254 0 154.613 69.359 154.613 154.613V657.915c0 85.254-69.359 154.613-154.613 154.613s-154.613-69.359-154.613-154.613V365.76c-0.001-85.254 69.359-154.614 154.613-154.614z m-94.614 446.769c0 52.17 42.443 94.613 94.613 94.613s94.613-42.443 94.613-94.613V365.76c0-52.17-42.443-94.613-94.613-94.613s-94.613 42.443-94.613 94.613V657.915z m349.529-260.481c-16.568 0-30-13.432-30-30 0-42.946-24.014-90.557-64.236-127.359-44.794-40.986-102.865-63.558-163.517-63.558-128.121 0-223.854 99.137-223.854 187.775 0 16.568-13.432 30-30 30s-30-13.432-30-30c0-60.395 29.799-122.368 81.755-170.029 48.523-44.512 110.545-71.249 176.805-76.692v-102.099H379.9c-16.568 0-30-13.432-30-30s13.432-30 30-30h253.934c16.568 0 30 13.432 30 30s-13.432 30-30 30h-89.078V118.509c62.911 7.236 122.043 34.046 169.314 77.299 25.448 23.283 46.508 50.89 60.905 79.834 14.935 30.025 22.828 61.767 22.828 91.792 0.001 16.568-13.431 30-29.999 30z"  horiz-adv-x="1024" />

    
    <glyph glyph-name="weitongguo1" unicode="&#58979;" d="M1105.445037 743.252268A553.899168 553.899168 0 0 1 987.944483 895.970117h75.454959a608.122147 608.122147 0 0 0 42.045595-50.980658v-101.737191z m0-163.692437v-194.061191A502.208785 502.208785 0 1 0 162.414932 705.756382 498.869343 498.869343 0 0 0 328.38596 895.970117h38.945218a481.014159 481.014159 0 1 1 490.225641 0h38.952689a500.16926 500.16926 0 0 0 208.935529-316.417757z m-71.966101 61.888008l1.583807-37.353941 29.838327-22.6589-35.157528-13.096291-12.41645-35.329357-23.331271 29.300431-37.510827 0.806845 20.746379 31.205482-10.750464 35.859782 36.143672-10.010856z m-117.83674 120.727935l30.861825 21.33657 1.576337-37.35394 29.838327-22.6589-35.164999-13.096292-12.408979-35.336827-23.331271 29.300431-37.518298 0.814316 20.768791 31.19801-10.757935 35.859783z m-47.984872-428.987592l-19.05798-2.6596a403.923098 403.923098 0 0 1-8.561523 62.799444l17.997128 1.733223a450.167276 450.167276 0 0 0 9.622375-61.873067zM956.238458 439.504967l17.317287-8.793118-19.326929-37.772304 33.230065-16.883981-8.352341-16.316201-33.230065 16.87651-53.079949-103.769246q-10.130389-19.81253-31.429605-8.964946l-32.064623 16.271377 4.602006 18.154015q16.96616-10.070622 29.360197-16.375968a9.218952 9.218952 0 0 1 14.239322 3.645745l51.055365 99.794787-85.42099 43.375395 8.34487 16.323672 85.428462-43.375395z m-157.050906 63.016097l17.309816 5.02037a314.9236 314.9236 0 0 0 21.164742-57.173941l-18.482729-6.178342a298.14421 298.14421 0 0 1-19.991829 58.324442z m-14.239322 279.459769l-23.31633 29.29296-37.518297 0.814316 20.716495 31.205481-10.765406 35.859783 36.151144-10.018327 30.869296 21.3291 1.583807-37.35394 29.838328-22.6589-35.157529-13.148587z m-159.336968 43.928234l-23.3238 29.30043-37.518298 0.814316 20.75385 31.198011L582.900767 895.970117h61.805829l28.493586-21.665286-35.164999-13.073879zM582.93065 625.527589a313.369676 313.369676 0 0 0 22.113533-57.06935l-17.929892-5.59562a288.910316 288.910316 0 0 1-21.291746 57.525068z m74.491228-256.068731l-19.424049 9.86144 3.51127 16.107019 18.124132-10.085563a8.143159 8.143159 0 0 1 12.506099 3.660686l8.964946 17.489115-39.318758 19.961945-20.522254-40.095719-15.688655 7.96386 20.522254 40.095719-39.124517 19.849884-20.843498-40.805444-15.912779 8.113276 63.464345 124.015081 58.503741-29.711324a322.842635 322.842635 0 0 1-21.119918 34.22368l15.427177 4.796246q11.011942-17.646001 17.967246-31.145715a263.673993 263.673993 0 0 1 44.548309 4.108933L625.110719 580.628153l7.276548 14.194497 126.607445-64.293601-6.200754-12.125089a289.007436 289.007436 0 0 0-61.746063-8.307517l2.196411-4.938191 46.318886-23.532982-53.296602-104.195081q-9.181599-17.967245-28.844712-7.971331z m-63.382166 98.562107l39.087163-19.842413 10.496457 20.514784-39.087163 19.849884z m28.388995 55.500484l-10.728052-20.985443 39.079692-19.842413 10.735523 20.977972z m94.079633-47.813043l-39.318757 19.961945-10.728052-20.940618 39.296345-19.969417z m-17.929891-34.97823l-39.318757 19.961946L648.808059 440.252046l39.311287-19.961946z m-0.747079-125.344882q34.455274 20.686612 52.071393 19.379224l36.143673 70.651243-33.700725 17.115575 8.113276 15.860483 49.845097-25.311029-44.720137-87.408221a49.710624 49.710624 0 0 0 3.331972-8.456932 73.841269 73.841269 0 0 1 11.676841-24.429477 114.870837 114.870837 0 0 1 30.630231-22.008941q25.50527-13.544539 47.96246-24.959903l31.489371-15.688655q18.019541-8.568994 24.810487-11.430306l-12.916992-14.88181-49.381909 25.071965q-12.169914 6.178342-43.285746 22.569251a191.199879 191.199879 0 0 0-36.240793 23.689869 61.775946 61.775946 0 0 0-17.272462 30.219337 14.889281 14.889281 0 0 1-6.604177 10.690698q-8.905179 4.519827-45.03391-18.266077z m69.478329-167.114058l30.861826 21.344042 1.576336-37.35394 29.883152-22.658901-35.157528-13.096291-12.423921-35.336828-23.331271 29.300431-37.503356 0.821787 20.746378 31.198011-10.750464 35.859782z m-170.83451-26.07305l30.854354 21.336571 1.583808-37.353941 29.838327-22.666371-35.127645-13.066408-12.41645-35.344298-23.3238 29.307901-37.518298 0.806846 20.76132 31.19801-10.750464 35.859783z m-65.578578 322.670807a53.28166 53.28166 0 0 0 3.107848-8.352341 61.111046 61.111046 0 0 1 10.742993-23.906522 101.393535 101.393535 0 0 1 29.188369-21.881938q24.571422-13.058938 46.109704-23.996172 10.52634-5.356555 33.693254-16.532853 19.199925-9.151715 26.461532-12.252093l-12.543454-14.807102-53.124773 26.977016q-11.953261 6.051338-41.642173 21.739993a180.621243 180.621243 0 0 0-34.836285 22.965203 59.019226 59.019226 0 0 0-16.353555 29.741207 14.680099 14.680099 0 0 1-6.148458 10.459103q-8.427049 4.280762-44.309244-18.034482l-6.790947 17.847712q33.760491 19.879767 51.257077 18.923507l36.240793 70.91272-33.230065 16.869039 7.87421 15.397294 48.91125-24.84037z m-55.044766 350.327664l-23.353684 29.307901-37.525768 0.814316L435.771067 856.524356 425.005661 892.384139l36.151144-10.010856L480.887156 895.970117h11.490072l1.210268-29.681441 29.883152-22.651429-35.202353-13.103763z m-57.383123-631.416065l30.869296 21.336571 1.583807-37.391294 29.838328-22.666371-35.150058-13.088821-12.431391-35.329357-23.323801 29.29296-37.518297 0.814316 20.753849 31.205482-10.765406 35.859783zM291.779098 273.100634l30.861826 21.336571 1.583807-37.353941 29.838327-22.666371-35.150058-13.08882-12.431391-35.336828-23.316329 29.300431-37.518298 0.806845 20.753849 31.198011-10.757935 35.859783z m-65.899821 137.4625l30.884238 21.3291 1.591277-37.391294 29.786032-22.65143-35.112703-13.096291-12.41645-35.336828-23.323801 29.300431-37.518297 0.821787 20.76132 31.19054-10.765406 35.859783z m108.326426 304.569087l78.637516-39.931362 16.338613 31.937619 17.339699-8.800588-16.338613-31.937619 80.266146-40.76062-8.352341-16.323672-80.281088 40.753149-21.112447-41.276104 92.682596-47.065965-8.352341-16.316201-77.233006 39.221638q0.993615-55.717137 41.014626-119.82397l-19.326929-8.964946q-38.571679 72.735592-35.262119 135.684453l-1.867697 0.94879-54.387337-106.331726-17.324758 8.793117 54.394808 106.331727-2.114233 1.098205a235.890133 235.890133 0 0 0-133.129443-51.062836l-1.60622 20.432605q71.921277 2.241236 121.631901 37.226937l-77.464602 39.363583 8.352341 16.316201 92.637772-47.065965 21.112447 41.276104-78.585219 39.946304z m-222.196178 18.490201A557.036899 557.036899 0 0 1 1105.445037 229.575823v-108.670083A611.947191 611.947191 0 0 0 63.957417 754.495804 610.034669 610.034669 0 0 0 161.600616 895.970117h73.004541a554.056054 554.056054 0 0 1-122.595632-162.347695z"  horiz-adv-x="1105" />

    
    </font>
</defs>
</svg>
